<?xml version="1.0" encoding="UTF-8" standalone="no"?>
<!-- Created with Inkscape (http://www.inkscape.org/) -->

<svg
   version="1.1"
   id="svg1"
   width="530"
   height="400"
   viewBox="0 0 530 400"
   sodipodi:docname="aspect_angle.svg"
   inkscape:version="1.3 (0e150ed6c4, 2023-07-21)"
   xmlns:inkscape="http://www.inkscape.org/namespaces/inkscape"
   xmlns:sodipodi="http://sodipodi.sourceforge.net/DTD/sodipodi-0.dtd"
   xmlns="http://www.w3.org/2000/svg"
   xmlns:svg="http://www.w3.org/2000/svg">
  <defs
     id="defs1" />
  <sodipodi:namedview
     id="namedview1"
     pagecolor="#ffffff"
     bordercolor="#000000"
     borderopacity="0.25"
     inkscape:showpageshadow="2"
     inkscape:pageopacity="0.0"
     inkscape:pagecheckerboard="0"
     inkscape:deskcolor="#d1d1d1"
     inkscape:export-bgcolor="#ffffffff"
     inkscape:zoom="1.4303571"
     inkscape:cx="280"
     inkscape:cy="210.08739"
     inkscape:window-width="1920"
     inkscape:window-height="991"
     inkscape:window-x="-9"
     inkscape:window-y="-9"
     inkscape:window-maximized="1"
     inkscape:current-layer="g1">
    <inkscape:page
       x="0"
       y="0"
       inkscape:label="1"
       id="page1"
       width="530"
       height="400"
       margin="0"
       bleed="0"
       inkscape:export-filename="aspect_angle.pdf"
       inkscape:export-xdpi="96"
       inkscape:export-ydpi="96" />
  </sodipodi:namedview>
  <g
     id="g1"
     inkscape:groupmode="layer"
     inkscape:label="1"
     transform="translate(-9.0546847,-19.683598)">
    <path
       id="path3"
       d="M 546,348 H 3804 V 2916 H 546 Z"
       style="fill:#ffffff;fill-opacity:1;fill-rule:nonzero;stroke:none"
       transform="matrix(0.13333333,0,0,-0.13333333,0,420)" />
    <path
       id="path4"
       d="M 546,348 V 2916"
       style="fill:none;stroke:#c6c6c6;stroke-width:4.998;stroke-linecap:butt;stroke-linejoin:bevel;stroke-miterlimit:10;stroke-dasharray:6, 18;stroke-dashoffset:0;stroke-opacity:1"
       transform="matrix(0.13333333,0,0,-0.13333333,0,420)" />
    <path
       id="path5"
       d="M 763.199,348 V 2916"
       style="fill:none;stroke:#c6c6c6;stroke-width:4.998;stroke-linecap:butt;stroke-linejoin:bevel;stroke-miterlimit:10;stroke-dasharray:6, 18;stroke-dashoffset:0;stroke-opacity:1"
       transform="matrix(0.13333333,0,0,-0.13333333,0,420)" />
    <path
       id="path6"
       d="M 980.398,348 V 2916"
       style="fill:none;stroke:#c6c6c6;stroke-width:4.998;stroke-linecap:butt;stroke-linejoin:bevel;stroke-miterlimit:10;stroke-dasharray:6, 18;stroke-dashoffset:0;stroke-opacity:1"
       transform="matrix(0.13333333,0,0,-0.13333333,0,420)" />
    <path
       id="path7"
       d="M 1197.6,348 V 2916"
       style="fill:none;stroke:#c6c6c6;stroke-width:4.998;stroke-linecap:butt;stroke-linejoin:bevel;stroke-miterlimit:10;stroke-dasharray:6, 18;stroke-dashoffset:0;stroke-opacity:1"
       transform="matrix(0.13333333,0,0,-0.13333333,0,420)" />
    <path
       id="path8"
       d="M 1414.8,348 V 2916"
       style="fill:none;stroke:#c6c6c6;stroke-width:4.998;stroke-linecap:butt;stroke-linejoin:bevel;stroke-miterlimit:10;stroke-dasharray:6, 18;stroke-dashoffset:0;stroke-opacity:1"
       transform="matrix(0.13333333,0,0,-0.13333333,0,420)" />
    <path
       id="path9"
       d="M 1632,348 V 2916"
       style="fill:none;stroke:#c6c6c6;stroke-width:4.998;stroke-linecap:butt;stroke-linejoin:bevel;stroke-miterlimit:10;stroke-dasharray:6, 18;stroke-dashoffset:0;stroke-opacity:1"
       transform="matrix(0.13333333,0,0,-0.13333333,0,420)" />
    <path
       id="path10"
       d="M 1849.2,348 V 2916"
       style="fill:none;stroke:#c6c6c6;stroke-width:4.998;stroke-linecap:butt;stroke-linejoin:bevel;stroke-miterlimit:10;stroke-dasharray:6, 18;stroke-dashoffset:0;stroke-opacity:1"
       transform="matrix(0.13333333,0,0,-0.13333333,0,420)" />
    <path
       id="path11"
       d="M 2066.4,348 V 2916"
       style="fill:none;stroke:#c6c6c6;stroke-width:4.998;stroke-linecap:butt;stroke-linejoin:bevel;stroke-miterlimit:10;stroke-dasharray:6, 18;stroke-dashoffset:0;stroke-opacity:1"
       transform="matrix(0.13333333,0,0,-0.13333333,0,420)" />
    <path
       id="path12"
       d="M 2283.6,348 V 2916"
       style="fill:none;stroke:#c6c6c6;stroke-width:4.998;stroke-linecap:butt;stroke-linejoin:bevel;stroke-miterlimit:10;stroke-dasharray:6, 18;stroke-dashoffset:0;stroke-opacity:1"
       transform="matrix(0.13333333,0,0,-0.13333333,0,420)" />
    <path
       id="path13"
       d="M 2500.8,348 V 2916"
       style="fill:none;stroke:#c6c6c6;stroke-width:4.998;stroke-linecap:butt;stroke-linejoin:bevel;stroke-miterlimit:10;stroke-dasharray:6, 18;stroke-dashoffset:0;stroke-opacity:1"
       transform="matrix(0.13333333,0,0,-0.13333333,0,420)" />
    <path
       id="path14"
       d="M 2718,348 V 2916"
       style="fill:none;stroke:#c6c6c6;stroke-width:4.998;stroke-linecap:butt;stroke-linejoin:bevel;stroke-miterlimit:10;stroke-dasharray:6, 18;stroke-dashoffset:0;stroke-opacity:1"
       transform="matrix(0.13333333,0,0,-0.13333333,0,420)" />
    <path
       id="path15"
       d="M 2935.2,348 V 2916"
       style="fill:none;stroke:#c6c6c6;stroke-width:4.998;stroke-linecap:butt;stroke-linejoin:bevel;stroke-miterlimit:10;stroke-dasharray:6, 18;stroke-dashoffset:0;stroke-opacity:1"
       transform="matrix(0.13333333,0,0,-0.13333333,0,420)" />
    <path
       id="path16"
       d="M 3152.4,348 V 2916"
       style="fill:none;stroke:#c6c6c6;stroke-width:4.998;stroke-linecap:butt;stroke-linejoin:bevel;stroke-miterlimit:10;stroke-dasharray:6, 18;stroke-dashoffset:0;stroke-opacity:1"
       transform="matrix(0.13333333,0,0,-0.13333333,0,420)" />
    <path
       id="path17"
       d="M 3369.6,348 V 2916"
       style="fill:none;stroke:#c6c6c6;stroke-width:4.998;stroke-linecap:butt;stroke-linejoin:bevel;stroke-miterlimit:10;stroke-dasharray:6, 18;stroke-dashoffset:0;stroke-opacity:1"
       transform="matrix(0.13333333,0,0,-0.13333333,0,420)" />
    <path
       id="path18"
       d="M 3586.8,348 V 2916"
       style="fill:none;stroke:#c6c6c6;stroke-width:4.998;stroke-linecap:butt;stroke-linejoin:bevel;stroke-miterlimit:10;stroke-dasharray:6, 18;stroke-dashoffset:0;stroke-opacity:1"
       transform="matrix(0.13333333,0,0,-0.13333333,0,420)" />
    <path
       id="path19"
       d="M 3804,348 V 2916"
       style="fill:none;stroke:#c6c6c6;stroke-width:4.998;stroke-linecap:butt;stroke-linejoin:bevel;stroke-miterlimit:10;stroke-dasharray:6, 18;stroke-dashoffset:0;stroke-opacity:1"
       transform="matrix(0.13333333,0,0,-0.13333333,0,420)" />
    <path
       id="path20"
       d="M 3804,348 H 546"
       style="fill:none;stroke:#c6c6c6;stroke-width:4.998;stroke-linecap:butt;stroke-linejoin:bevel;stroke-miterlimit:10;stroke-dasharray:6, 18;stroke-dashoffset:0;stroke-opacity:1"
       transform="matrix(0.13333333,0,0,-0.13333333,0,420)" />
    <path
       id="path21"
       d="M 3804,412.199 H 546"
       style="fill:none;stroke:#c6c6c6;stroke-width:4.998;stroke-linecap:butt;stroke-linejoin:bevel;stroke-miterlimit:10;stroke-dasharray:6, 18;stroke-dashoffset:0;stroke-opacity:1"
       transform="matrix(0.13333333,0,0,-0.13333333,0,420)" />
    <path
       id="path22"
       d="M 3804,476.398 H 546"
       style="fill:none;stroke:#c6c6c6;stroke-width:4.998;stroke-linecap:butt;stroke-linejoin:bevel;stroke-miterlimit:10;stroke-dasharray:6, 18;stroke-dashoffset:0;stroke-opacity:1"
       transform="matrix(0.13333333,0,0,-0.13333333,0,420)" />
    <path
       id="path23"
       d="M 3804,540.602 H 546"
       style="fill:none;stroke:#c6c6c6;stroke-width:4.998;stroke-linecap:butt;stroke-linejoin:bevel;stroke-miterlimit:10;stroke-dasharray:6, 18;stroke-dashoffset:0;stroke-opacity:1"
       transform="matrix(0.13333333,0,0,-0.13333333,0,420)" />
    <path
       id="path24"
       d="M 3804,604.801 H 546"
       style="fill:none;stroke:#c6c6c6;stroke-width:4.998;stroke-linecap:butt;stroke-linejoin:bevel;stroke-miterlimit:10;stroke-dasharray:6, 18;stroke-dashoffset:0;stroke-opacity:1"
       transform="matrix(0.13333333,0,0,-0.13333333,0,420)" />
    <path
       id="path25"
       d="M 3804,669 H 546"
       style="fill:none;stroke:#c6c6c6;stroke-width:4.998;stroke-linecap:butt;stroke-linejoin:bevel;stroke-miterlimit:10;stroke-dasharray:6, 18;stroke-dashoffset:0;stroke-opacity:1"
       transform="matrix(0.13333333,0,0,-0.13333333,0,420)" />
    <path
       id="path26"
       d="M 3804,733.199 H 546"
       style="fill:none;stroke:#c6c6c6;stroke-width:4.998;stroke-linecap:butt;stroke-linejoin:bevel;stroke-miterlimit:10;stroke-dasharray:6, 18;stroke-dashoffset:0;stroke-opacity:1"
       transform="matrix(0.13333333,0,0,-0.13333333,0,420)" />
    <path
       id="path27"
       d="M 3804,797.398 H 546"
       style="fill:none;stroke:#c6c6c6;stroke-width:4.998;stroke-linecap:butt;stroke-linejoin:bevel;stroke-miterlimit:10;stroke-dasharray:6, 18;stroke-dashoffset:0;stroke-opacity:1"
       transform="matrix(0.13333333,0,0,-0.13333333,0,420)" />
    <path
       id="path28"
       d="M 3804,861.602 H 546"
       style="fill:none;stroke:#c6c6c6;stroke-width:4.998;stroke-linecap:butt;stroke-linejoin:bevel;stroke-miterlimit:10;stroke-dasharray:6, 18;stroke-dashoffset:0;stroke-opacity:1"
       transform="matrix(0.13333333,0,0,-0.13333333,0,420)" />
    <path
       id="path29"
       d="M 3804,925.801 H 546"
       style="fill:none;stroke:#c6c6c6;stroke-width:4.998;stroke-linecap:butt;stroke-linejoin:bevel;stroke-miterlimit:10;stroke-dasharray:6, 18;stroke-dashoffset:0;stroke-opacity:1"
       transform="matrix(0.13333333,0,0,-0.13333333,0,420)" />
    <path
       id="path30"
       d="M 3804,990 H 546"
       style="fill:none;stroke:#c6c6c6;stroke-width:4.998;stroke-linecap:butt;stroke-linejoin:bevel;stroke-miterlimit:10;stroke-dasharray:6, 18;stroke-dashoffset:0;stroke-opacity:1"
       transform="matrix(0.13333333,0,0,-0.13333333,0,420)" />
    <path
       id="path31"
       d="M 3804,1054.2 H 546"
       style="fill:none;stroke:#c6c6c6;stroke-width:4.998;stroke-linecap:butt;stroke-linejoin:bevel;stroke-miterlimit:10;stroke-dasharray:6, 18;stroke-dashoffset:0;stroke-opacity:1"
       transform="matrix(0.13333333,0,0,-0.13333333,0,420)" />
    <path
       id="path32"
       d="M 3804,1118.4 H 546"
       style="fill:none;stroke:#c6c6c6;stroke-width:4.998;stroke-linecap:butt;stroke-linejoin:bevel;stroke-miterlimit:10;stroke-dasharray:6, 18;stroke-dashoffset:0;stroke-opacity:1"
       transform="matrix(0.13333333,0,0,-0.13333333,0,420)" />
    <path
       id="path33"
       d="M 3804,1182.6 H 546"
       style="fill:none;stroke:#c6c6c6;stroke-width:4.998;stroke-linecap:butt;stroke-linejoin:bevel;stroke-miterlimit:10;stroke-dasharray:6, 18;stroke-dashoffset:0;stroke-opacity:1"
       transform="matrix(0.13333333,0,0,-0.13333333,0,420)" />
    <path
       id="path34"
       d="M 3804,1246.8 H 546"
       style="fill:none;stroke:#c6c6c6;stroke-width:4.998;stroke-linecap:butt;stroke-linejoin:bevel;stroke-miterlimit:10;stroke-dasharray:6, 18;stroke-dashoffset:0;stroke-opacity:1"
       transform="matrix(0.13333333,0,0,-0.13333333,0,420)" />
    <path
       id="path35"
       d="M 3804,1311 H 546"
       style="fill:none;stroke:#c6c6c6;stroke-width:4.998;stroke-linecap:butt;stroke-linejoin:bevel;stroke-miterlimit:10;stroke-dasharray:6, 18;stroke-dashoffset:0;stroke-opacity:1"
       transform="matrix(0.13333333,0,0,-0.13333333,0,420)" />
    <path
       id="path36"
       d="M 3804,1375.2 H 546"
       style="fill:none;stroke:#c6c6c6;stroke-width:4.998;stroke-linecap:butt;stroke-linejoin:bevel;stroke-miterlimit:10;stroke-dasharray:6, 18;stroke-dashoffset:0;stroke-opacity:1"
       transform="matrix(0.13333333,0,0,-0.13333333,0,420)" />
    <path
       id="path37"
       d="M 3804,1439.4 H 546"
       style="fill:none;stroke:#c6c6c6;stroke-width:4.998;stroke-linecap:butt;stroke-linejoin:bevel;stroke-miterlimit:10;stroke-dasharray:6, 18;stroke-dashoffset:0;stroke-opacity:1"
       transform="matrix(0.13333333,0,0,-0.13333333,0,420)" />
    <path
       id="path38"
       d="M 3804,1503.6 H 546"
       style="fill:none;stroke:#c6c6c6;stroke-width:4.998;stroke-linecap:butt;stroke-linejoin:bevel;stroke-miterlimit:10;stroke-dasharray:6, 18;stroke-dashoffset:0;stroke-opacity:1"
       transform="matrix(0.13333333,0,0,-0.13333333,0,420)" />
    <path
       id="path39"
       d="M 3804,1567.8 H 546"
       style="fill:none;stroke:#c6c6c6;stroke-width:4.998;stroke-linecap:butt;stroke-linejoin:bevel;stroke-miterlimit:10;stroke-dasharray:6, 18;stroke-dashoffset:0;stroke-opacity:1"
       transform="matrix(0.13333333,0,0,-0.13333333,0,420)" />
    <path
       id="path40"
       d="M 3804,1632 H 546"
       style="fill:none;stroke:#c6c6c6;stroke-width:4.998;stroke-linecap:butt;stroke-linejoin:bevel;stroke-miterlimit:10;stroke-dasharray:6, 18;stroke-dashoffset:0;stroke-opacity:1"
       transform="matrix(0.13333333,0,0,-0.13333333,0,420)" />
    <path
       id="path41"
       d="M 3804,1696.2 H 546"
       style="fill:none;stroke:#c6c6c6;stroke-width:4.998;stroke-linecap:butt;stroke-linejoin:bevel;stroke-miterlimit:10;stroke-dasharray:6, 18;stroke-dashoffset:0;stroke-opacity:1"
       transform="matrix(0.13333333,0,0,-0.13333333,0,420)" />
    <path
       id="path42"
       d="M 3804,1760.4 H 546"
       style="fill:none;stroke:#c6c6c6;stroke-width:4.998;stroke-linecap:butt;stroke-linejoin:bevel;stroke-miterlimit:10;stroke-dasharray:6, 18;stroke-dashoffset:0;stroke-opacity:1"
       transform="matrix(0.13333333,0,0,-0.13333333,0,420)" />
    <path
       id="path43"
       d="M 3804,1824.6 H 546"
       style="fill:none;stroke:#c6c6c6;stroke-width:4.998;stroke-linecap:butt;stroke-linejoin:bevel;stroke-miterlimit:10;stroke-dasharray:6, 18;stroke-dashoffset:0;stroke-opacity:1"
       transform="matrix(0.13333333,0,0,-0.13333333,0,420)" />
    <path
       id="path44"
       d="M 3804,1888.8 H 546"
       style="fill:none;stroke:#c6c6c6;stroke-width:4.998;stroke-linecap:butt;stroke-linejoin:bevel;stroke-miterlimit:10;stroke-dasharray:6, 18;stroke-dashoffset:0;stroke-opacity:1"
       transform="matrix(0.13333333,0,0,-0.13333333,0,420)" />
    <path
       id="path45"
       d="M 3804,1953 H 546"
       style="fill:none;stroke:#c6c6c6;stroke-width:4.998;stroke-linecap:butt;stroke-linejoin:bevel;stroke-miterlimit:10;stroke-dasharray:6, 18;stroke-dashoffset:0;stroke-opacity:1"
       transform="matrix(0.13333333,0,0,-0.13333333,0,420)" />
    <path
       id="path46"
       d="M 3804,2017.2 H 546"
       style="fill:none;stroke:#c6c6c6;stroke-width:4.998;stroke-linecap:butt;stroke-linejoin:bevel;stroke-miterlimit:10;stroke-dasharray:6, 18;stroke-dashoffset:0;stroke-opacity:1"
       transform="matrix(0.13333333,0,0,-0.13333333,0,420)" />
    <path
       id="path47"
       d="M 3804,2081.4 H 546"
       style="fill:none;stroke:#c6c6c6;stroke-width:4.998;stroke-linecap:butt;stroke-linejoin:bevel;stroke-miterlimit:10;stroke-dasharray:6, 18;stroke-dashoffset:0;stroke-opacity:1"
       transform="matrix(0.13333333,0,0,-0.13333333,0,420)" />
    <path
       id="path48"
       d="M 3804,2145.6 H 546"
       style="fill:none;stroke:#c6c6c6;stroke-width:4.998;stroke-linecap:butt;stroke-linejoin:bevel;stroke-miterlimit:10;stroke-dasharray:6, 18;stroke-dashoffset:0;stroke-opacity:1"
       transform="matrix(0.13333333,0,0,-0.13333333,0,420)" />
    <path
       id="path49"
       d="M 3804,2209.8 H 546"
       style="fill:none;stroke:#c6c6c6;stroke-width:4.998;stroke-linecap:butt;stroke-linejoin:bevel;stroke-miterlimit:10;stroke-dasharray:6, 18;stroke-dashoffset:0;stroke-opacity:1"
       transform="matrix(0.13333333,0,0,-0.13333333,0,420)" />
    <path
       id="path50"
       d="M 3804,2274 H 546"
       style="fill:none;stroke:#c6c6c6;stroke-width:4.998;stroke-linecap:butt;stroke-linejoin:bevel;stroke-miterlimit:10;stroke-dasharray:6, 18;stroke-dashoffset:0;stroke-opacity:1"
       transform="matrix(0.13333333,0,0,-0.13333333,0,420)" />
    <path
       id="path51"
       d="M 3804,2338.2 H 546"
       style="fill:none;stroke:#c6c6c6;stroke-width:4.998;stroke-linecap:butt;stroke-linejoin:bevel;stroke-miterlimit:10;stroke-dasharray:6, 18;stroke-dashoffset:0;stroke-opacity:1"
       transform="matrix(0.13333333,0,0,-0.13333333,0,420)" />
    <path
       id="path52"
       d="M 3804,2402.4 H 546"
       style="fill:none;stroke:#c6c6c6;stroke-width:4.998;stroke-linecap:butt;stroke-linejoin:bevel;stroke-miterlimit:10;stroke-dasharray:6, 18;stroke-dashoffset:0;stroke-opacity:1"
       transform="matrix(0.13333333,0,0,-0.13333333,0,420)" />
    <path
       id="path53"
       d="M 3804,2466.6 H 546"
       style="fill:none;stroke:#c6c6c6;stroke-width:4.998;stroke-linecap:butt;stroke-linejoin:bevel;stroke-miterlimit:10;stroke-dasharray:6, 18;stroke-dashoffset:0;stroke-opacity:1"
       transform="matrix(0.13333333,0,0,-0.13333333,0,420)" />
    <path
       id="path54"
       d="M 3804,2530.8 H 546"
       style="fill:none;stroke:#c6c6c6;stroke-width:4.998;stroke-linecap:butt;stroke-linejoin:bevel;stroke-miterlimit:10;stroke-dasharray:6, 18;stroke-dashoffset:0;stroke-opacity:1"
       transform="matrix(0.13333333,0,0,-0.13333333,0,420)" />
    <path
       id="path55"
       d="M 3804,2595 H 546"
       style="fill:none;stroke:#c6c6c6;stroke-width:4.998;stroke-linecap:butt;stroke-linejoin:bevel;stroke-miterlimit:10;stroke-dasharray:6, 18;stroke-dashoffset:0;stroke-opacity:1"
       transform="matrix(0.13333333,0,0,-0.13333333,0,420)" />
    <path
       id="path56"
       d="M 3804,2659.2 H 546"
       style="fill:none;stroke:#c6c6c6;stroke-width:4.998;stroke-linecap:butt;stroke-linejoin:bevel;stroke-miterlimit:10;stroke-dasharray:6, 18;stroke-dashoffset:0;stroke-opacity:1"
       transform="matrix(0.13333333,0,0,-0.13333333,0,420)" />
    <path
       id="path57"
       d="M 3804,2723.4 H 546"
       style="fill:none;stroke:#c6c6c6;stroke-width:4.998;stroke-linecap:butt;stroke-linejoin:bevel;stroke-miterlimit:10;stroke-dasharray:6, 18;stroke-dashoffset:0;stroke-opacity:1"
       transform="matrix(0.13333333,0,0,-0.13333333,0,420)" />
    <path
       id="path58"
       d="M 3804,2787.6 H 546"
       style="fill:none;stroke:#c6c6c6;stroke-width:4.998;stroke-linecap:butt;stroke-linejoin:bevel;stroke-miterlimit:10;stroke-dasharray:6, 18;stroke-dashoffset:0;stroke-opacity:1"
       transform="matrix(0.13333333,0,0,-0.13333333,0,420)" />
    <path
       id="path59"
       d="M 3804,2851.8 H 546"
       style="fill:none;stroke:#c6c6c6;stroke-width:4.998;stroke-linecap:butt;stroke-linejoin:bevel;stroke-miterlimit:10;stroke-dasharray:6, 18;stroke-dashoffset:0;stroke-opacity:1"
       transform="matrix(0.13333333,0,0,-0.13333333,0,420)" />
    <path
       id="path60"
       d="M 3804,2916 H 546"
       style="fill:none;stroke:#c6c6c6;stroke-width:4.998;stroke-linecap:butt;stroke-linejoin:bevel;stroke-miterlimit:10;stroke-dasharray:6, 18;stroke-dashoffset:0;stroke-opacity:1"
       transform="matrix(0.13333333,0,0,-0.13333333,0,420)" />
    <path
       id="path61"
       d="M 546,348 H 3804"
       style="fill:none;stroke:#262626;stroke-width:4.998;stroke-linecap:square;stroke-linejoin:round;stroke-miterlimit:10;stroke-dasharray:none;stroke-opacity:1"
       transform="matrix(0.13333333,0,0,-0.13333333,0,420)" />
    <path
       id="path62"
       d="M 546,2916 H 3804"
       style="fill:none;stroke:#262626;stroke-width:4.998;stroke-linecap:square;stroke-linejoin:round;stroke-miterlimit:10;stroke-dasharray:none;stroke-opacity:1"
       transform="matrix(0.13333333,0,0,-0.13333333,0,420)" />
    <path
       id="path63"
       d="m 546,348 v 32.582"
       style="fill:none;stroke:#262626;stroke-width:4.998;stroke-linecap:square;stroke-linejoin:round;stroke-miterlimit:10;stroke-dasharray:none;stroke-opacity:1"
       transform="matrix(0.13333333,0,0,-0.13333333,0,420)" />
    <path
       id="path64"
       d="m 1632,348 v 32.582"
       style="fill:none;stroke:#262626;stroke-width:4.998;stroke-linecap:square;stroke-linejoin:round;stroke-miterlimit:10;stroke-dasharray:none;stroke-opacity:1"
       transform="matrix(0.13333333,0,0,-0.13333333,0,420)" />
    <path
       id="path65"
       d="m 2718,348 v 32.582"
       style="fill:none;stroke:#262626;stroke-width:4.998;stroke-linecap:square;stroke-linejoin:round;stroke-miterlimit:10;stroke-dasharray:none;stroke-opacity:1"
       transform="matrix(0.13333333,0,0,-0.13333333,0,420)" />
    <path
       id="path66"
       d="m 3804,348 v 32.582"
       style="fill:none;stroke:#262626;stroke-width:4.998;stroke-linecap:square;stroke-linejoin:round;stroke-miterlimit:10;stroke-dasharray:none;stroke-opacity:1"
       transform="matrix(0.13333333,0,0,-0.13333333,0,420)" />
    <path
       id="path67"
       d="m 546,2916 v -32.58"
       style="fill:none;stroke:#262626;stroke-width:4.998;stroke-linecap:square;stroke-linejoin:round;stroke-miterlimit:10;stroke-dasharray:none;stroke-opacity:1"
       transform="matrix(0.13333333,0,0,-0.13333333,0,420)" />
    <path
       id="path68"
       d="m 1632,2916 v -32.58"
       style="fill:none;stroke:#262626;stroke-width:4.998;stroke-linecap:square;stroke-linejoin:round;stroke-miterlimit:10;stroke-dasharray:none;stroke-opacity:1"
       transform="matrix(0.13333333,0,0,-0.13333333,0,420)" />
    <path
       id="path69"
       d="m 2718,2916 v -32.58"
       style="fill:none;stroke:#262626;stroke-width:4.998;stroke-linecap:square;stroke-linejoin:round;stroke-miterlimit:10;stroke-dasharray:none;stroke-opacity:1"
       transform="matrix(0.13333333,0,0,-0.13333333,0,420)" />
    <path
       id="path70"
       d="m 3804,2916 v -32.58"
       style="fill:none;stroke:#262626;stroke-width:4.998;stroke-linecap:square;stroke-linejoin:round;stroke-miterlimit:10;stroke-dasharray:none;stroke-opacity:1"
       transform="matrix(0.13333333,0,0,-0.13333333,0,420)" />
    <path
       id="path71"
       d="m 3.0240234,-7.9556641 c -0.7265625,0 -1.3828125,0.328125 -1.7929687,0.8671875 -0.50390626,0.703125 -0.76171876,1.7695313 -0.76171876,3.234375 0,2.6835938 0.87890626,4.11328129 2.55468746,4.11328129 1.6523438,0 2.5546875,-1.42968749 2.5546875,-4.04296879 0,-1.5351562 -0.2460937,-2.578125 -0.7617187,-3.3046875 C 4.4185547,-7.6392578 3.7623047,-7.9556641 3.0240234,-7.9556641 Z m 0,0.8554688 c 1.0429688,0 1.5703125,1.0664062 1.5703125,3.2226562 0,2.2734375 -0.515625,3.32812504 -1.59375,3.32812504 -1.0195312,0 -1.5351562,-1.10156254 -1.5351562,-3.29296874 0,-2.1914063 0.515625,-3.2578125 1.5585937,-3.2578125 z M 113.83945,-7.8033203 h -4.03125 l -0.57422,4.2539062 h 0.89063 c 0.44531,-0.5390625 0.82031,-0.7265625 1.44141,-0.7265625 1.04296,0 1.6875,0.7148438 1.6875,1.8632813 0,1.125 -0.64454,1.80468749 -1.69922,1.80468749 -0.85547,0 -1.3711,-0.42187499 -1.60547,-1.30078129 h -0.96094 c 0.12891,0.6328125 0.24609,0.93750004 0.46875,1.23046879 0.44531,0.5859375 1.23047,0.9375 2.12109,0.9375 1.57032,0 2.67188,-1.1484375 2.67188,-2.80078129 0,-1.5351562 -1.03125,-2.6015625 -2.51953,-2.6015625 -0.55078,0 -0.9961,0.1523438 -1.44141,0.4804688 l 0.30469,-2.1796875 h 3.24609 z m 103.50879,2.1328125 v 5.67187499 h 0.97266 V -7.9556641 h -0.64453 c -0.33985,1.21875 -0.5625,1.3828125 -2.05078,1.5820313 v 0.703125 z m 5.73633,-2.2851563 c -0.72656,0 -1.38281,0.328125 -1.79297,0.8671875 -0.5039,0.703125 -0.76172,1.7695313 -0.76172,3.234375 0,2.6835938 0.87891,4.11328129 2.55469,4.11328129 1.65234,0 2.55469,-1.42968749 2.55469,-4.04296879 0,-1.5351562 -0.2461,-2.578125 -0.76172,-3.3046875 -0.39844,-0.5507812 -1.05469,-0.8671875 -1.79297,-0.8671875 z m 0,0.8554688 c 1.04297,0 1.57031,1.0664062 1.57031,3.2226562 0,2.2734375 -0.51562,3.32812504 -1.59375,3.32812504 -1.01953,0 -1.53515,-1.10156254 -1.53515,-3.29296874 0,-2.1914063 0.51562,-3.2578125 1.55859,-3.2578125 z m 102.86426,1.4296875 v 5.67187499 h 0.97265 V -7.9556641 h -0.64453 c -0.33984,1.21875 -0.5625,1.3828125 -2.05078,1.5820313 v 0.703125 z M 333.9,-7.8033203 h -4.03125 l -0.57422,4.2539062 h 0.89063 c 0.44531,-0.5390625 0.82031,-0.7265625 1.4414,-0.7265625 1.04297,0 1.6875,0.7148438 1.6875,1.8632813 0,1.125 -0.64453,1.80468749 -1.69922,1.80468749 -0.85547,0 -1.37109,-0.42187499 -1.60547,-1.30078129 h -0.96093 c 0.1289,0.6328125 0.24609,0.93750004 0.46875,1.23046879 0.44531,0.5859375 1.23047,0.9375 2.12109,0.9375 1.57031,0 2.67188,-1.1484375 2.67188,-2.80078129 0,-1.5351562 -1.03125,-2.6015625 -2.51954,-2.6015625 -0.55078,0 -0.99609,0.1523438 -1.4414,0.4804688 l 0.30469,-2.1796875 H 333.9 Z m -208.44727,19.4501953 3.02344,-4.875 h -1.23047 l -2.28515,3.914063 -2.35547,-3.914063 h -1.26563 l 3.09375,4.875 v 3.152344 h 1.01953 z m 8.7334,0.574219 c 0,-0.878906 -0.0703,-1.40625 -0.23437,-1.839844 -0.375,-0.9375 -1.25391,-1.5117187 -2.33203,-1.5117187 -1.60547,0 -2.63672,1.2187497 -2.63672,3.1289067 0,1.898437 0.98437,3.058593 2.61328,3.058593 1.32422,0 2.23828,-0.75 2.46094,-2.003906 h -0.91407 c -0.25781,0.75 -0.77343,1.148438 -1.51171,1.148438 -0.58594,0 -1.07813,-0.257813 -1.38282,-0.75 -0.22265,-0.328125 -0.30468,-0.65625 -0.3164,-1.230469 z m -4.23047,-0.75 c 0.082,-1.066406 0.72657,-1.7578127 1.65235,-1.7578127 0.9375,0 1.58203,0.7265627 1.58203,1.7578127 z m 10.57911,2.789062 c -0.0937,0.02344 -0.14063,0.02344 -0.19922,0.02344 -0.31641,0 -0.49219,-0.164063 -0.49219,-0.457031 v -3.386719 c 0,-1.0195315 -0.75,-1.5703127 -2.16797,-1.5703127 -0.84375,0 -1.51172,0.2460937 -1.91016,0.6679687 -0.26953,0.3046875 -0.375,0.632813 -0.39843,1.207031 h 0.92578 c 0.0703,-0.714843 0.49219,-1.0312497 1.34765,-1.0312497 0.84375,0 1.28907,0.3046877 1.28907,0.8554687 v 0.246094 c -0.0117,0.398437 -0.21094,0.539062 -0.94922,0.644531 -1.30078,0.164063 -1.5,0.199219 -1.85156,0.351563 -0.66797,0.28125 -1.01954,0.785156 -1.01954,1.535156 0,1.042969 0.72657,1.710937 1.89844,1.710937 0.72656,0 1.3125,-0.257812 1.95703,-0.855468 0.0703,0.597656 0.35157,0.855468 0.94922,0.855468 0.19922,0 0.31641,-0.02344 0.6211,-0.105468 z m -1.60547,-1.277343 c 0,0.304687 -0.082,0.492187 -0.36328,0.75 -0.375,0.339843 -0.82032,0.515625 -1.35938,0.515625 -0.71484,0 -1.13672,-0.339844 -1.13672,-0.925782 0,-0.597656 0.39844,-0.914062 1.38281,-1.054687 0.98438,-0.128906 1.17188,-0.175781 1.47657,-0.316406 z m 2.60156,-3.9492192 v 5.7656252 h 0.92578 v -2.988281 c 0.0117,-1.394532 0.57422,-2.0039067 1.83984,-1.9687505 v -0.9375 c -0.15234,-0.023437 -0.23437,-0.035156 -0.35156,-0.035156 -0.58594,0 -1.04297,0.3515625 -1.57031,1.2070315 V 9.0335938 Z m 7.7168,1.6054692 c -0.0117,-1.1367192 -0.76172,-1.7695317 -2.08594,-1.7695317 -1.34766,0 -2.21485,0.6914062 -2.21485,1.7578127 0,0.902344 0.46875,1.335937 1.82813,1.664062 l 0.85547,0.210938 c 0.64453,0.152344 0.89062,0.386719 0.89062,0.785156 0,0.550781 -0.53906,0.914063 -1.33593,0.914063 -0.50391,0 -0.91407,-0.140625 -1.14844,-0.386719 -0.14063,-0.164063 -0.21094,-0.328125 -0.25781,-0.726563 h -0.97266 c 0.0469,1.324219 0.79687,1.96875 2.29687,1.96875 1.45313,0 2.37891,-0.714843 2.37891,-1.828125 0,-0.867187 -0.48047,-1.335937 -1.62891,-1.605468 l -0.8789,-0.210938 c -0.75,-0.175781 -1.06641,-0.421875 -1.06641,-0.832031 0,-0.539063 0.46875,-0.8671877 1.21875,-0.8671877 0.73828,0 1.13672,0.3164067 1.16016,0.9257817 z m 6.57714,-1.6054692 h -0.94921 V 8.13125 c 0,-0.3867187 0.19921,-0.5859375 0.63281,-0.5859375 0.082,0 0.10547,0 0.3164,0.011719 v -0.761719 c -0.21093,-0.035156 -0.32812,-0.046875 -0.51562,-0.046875 -0.84375,0 -1.34766,0.4804688 -1.34766,1.3007813 v 0.984375 h -0.77343 v 0.75 h 0.77343 v 5.0156252 h 0.91407 V 9.7835938 h 0.94921 z m 0.98438,0 v 5.7656252 h 0.92578 v -2.988281 c 0.0117,-1.394532 0.57422,-2.0039067 1.83984,-1.9687505 v -0.9375 c -0.15234,-0.023437 -0.23437,-0.035156 -0.35156,-0.035156 -0.58594,0 -1.04297,0.3515625 -1.57031,1.2070315 V 9.0335938 Z m 5.88867,-0.1640625 c -1.6289,0 -2.58984,1.1484377 -2.58984,3.0937497 0,1.945313 0.96094,3.09375 2.60156,3.09375 1.62891,0 2.61328,-1.160156 2.61328,-3.058593 0,-1.992188 -0.94922,-3.1289067 -2.625,-3.1289067 z m 0.0117,0.84375 c 1.04297,0 1.65234,0.8437497 1.65234,2.2851567 0,1.359375 -0.63281,2.203125 -1.65234,2.203125 -1.01953,0 -1.65234,-0.84375 -1.65234,-2.238282 0,-1.40625 0.63281,-2.2499997 1.65234,-2.2499997 z m 3.89063,-0.6796875 v 5.7656252 h 0.92578 v -3.621094 c 0,-0.832031 0.59765,-1.5117187 1.34765,-1.5117187 0.67969,0 1.06641,0.4218747 1.06641,1.1601567 v 3.972656 h 0.92578 v -3.621094 c 0,-0.832031 0.60938,-1.5117187 1.35938,-1.5117187 0.66796,0 1.0664,0.4335937 1.0664,1.1601567 v 3.972656 h 0.92578 V 10.475 c 0,-1.03125 -0.59765,-1.6054687 -1.67578,-1.6054687 -0.77344,0 -1.23047,0.234375 -1.76953,0.8789062 -0.33984,-0.6210937 -0.80859,-0.8789062 -1.55859,-0.8789062 -0.77344,0 -1.28907,0.28125 -1.76953,0.9726562 V 9.0335938 Z M 179.72227,6.771875 h -0.92579 v 8.027344 h 0.92579 z m 6.65039,7.488281 c -0.0937,0.02344 -0.14063,0.02344 -0.19922,0.02344 -0.31641,0 -0.49219,-0.164063 -0.49219,-0.457031 v -3.386719 c 0,-1.0195315 -0.75,-1.5703127 -2.16797,-1.5703127 -0.84375,0 -1.51172,0.2460937 -1.91016,0.6679687 -0.26953,0.3046875 -0.375,0.632813 -0.39843,1.207031 h 0.92578 c 0.0703,-0.714843 0.49219,-1.0312497 1.34765,-1.0312497 0.84375,0 1.28907,0.3046877 1.28907,0.8554687 v 0.246094 c -0.0117,0.398437 -0.21094,0.539062 -0.94922,0.644531 -1.30078,0.164063 -1.5,0.199219 -1.85156,0.351563 -0.66797,0.28125 -1.01954,0.785156 -1.01954,1.535156 0,1.042969 0.72657,1.710937 1.89844,1.710937 0.72656,0 1.3125,-0.257812 1.95703,-0.855468 0.0703,0.597656 0.35157,0.855468 0.94922,0.855468 0.19922,0 0.31641,-0.02344 0.6211,-0.105468 z m -1.60547,-1.277343 c 0,0.304687 -0.082,0.492187 -0.36328,0.75 -0.375,0.339843 -0.82032,0.515625 -1.35938,0.515625 -0.71484,0 -1.13672,-0.339844 -1.13672,-0.925782 0,-0.597656 0.39844,-0.914062 1.38281,-1.054687 0.98438,-0.128906 1.17188,-0.175781 1.47657,-0.316406 z m 7.14551,1.816406 V 9.0335938 h -0.91407 v 3.2695312 c 0,1.171875 -0.62109,1.945313 -1.58203,1.945313 -0.72656,0 -1.18359,-0.445313 -1.18359,-1.136719 V 9.0335938 h -0.91406 V 13.475 c 0,0.960938 0.71484,1.582031 1.83984,1.582031 0.84375,0 1.38281,-0.304687 1.92187,-1.066406 v 0.808594 z m 1.58203,-5.7656252 v 5.7656252 h 0.92578 v -3.175781 c 0,-1.183594 0.60937,-1.9570317 1.55859,-1.9570317 0.72656,0 1.1836,0.4453127 1.1836,1.1367187 v 3.996094 h 0.91406 v -4.359375 c 0,-0.9609377 -0.71485,-1.5703127 -1.82813,-1.5703127 -0.85547,0 -1.40625,0.328125 -1.91015,1.1367187 V 9.0335938 Z m 10.5205,1.9335942 c -0.0352,-0.5625 -0.16406,-0.925782 -0.38671,-1.242188 -0.38672,-0.5390625 -1.08985,-0.8554687 -1.88672,-0.8554687 -1.5586,0 -2.56641,1.2304687 -2.56641,3.1406247 0,1.863282 0.99609,3.046875 2.55469,3.046875 1.37109,0 2.25,-0.832031 2.35547,-2.238281 h -0.92578 c -0.15235,0.925781 -0.6211,1.382813 -1.40625,1.382813 -1.01954,0 -1.61719,-0.820313 -1.61719,-2.191407 0,-1.441406 0.59765,-2.2968747 1.59375,-2.2968747 0.77344,0 1.2539,0.4570317 1.35937,1.2539067 z m 1.09571,-4.195313 v 8.027344 h 0.91406 v -3.175781 c 0,-1.183594 0.60937,-1.9570317 1.55859,-1.9570317 0.30469,0 0.59766,0.09375 0.8086,0.2578125 0.26953,0.1992192 0.375,0.4687502 0.375,0.8789062 v 3.996094 h 0.91406 v -4.359375 c 0,-0.9609377 -0.69141,-1.5703127 -1.81641,-1.5703127 -0.80859,0 -1.30078,0.2460937 -1.83984,0.9609375 V 6.771875 Z m 0,0"
       style="fill:#262626;fill-opacity:1;fill-rule:nonzero;stroke:none"
       aria-label="051015&#10;Years from launch"
       transform="matrix(1.3333333,0,0,1.3333333,68.8,392.53333)" />
    <path
       id="path72"
       d="M 546,348 V 2916"
       style="fill:none;stroke:#262626;stroke-width:4.998;stroke-linecap:square;stroke-linejoin:round;stroke-miterlimit:10;stroke-dasharray:none;stroke-opacity:1"
       transform="matrix(0.13333333,0,0,-0.13333333,0,420)" />
    <path
       id="path73"
       d="M 3804,348 V 2916"
       style="fill:none;stroke:#262626;stroke-width:4.998;stroke-linecap:square;stroke-linejoin:round;stroke-miterlimit:10;stroke-dasharray:none;stroke-opacity:1"
       transform="matrix(0.13333333,0,0,-0.13333333,0,420)" />
    <path
       id="path74"
       d="m 546,348 h 32.578"
       style="fill:none;stroke:#262626;stroke-width:4.998;stroke-linecap:square;stroke-linejoin:round;stroke-miterlimit:10;stroke-dasharray:none;stroke-opacity:1"
       transform="matrix(0.13333333,0,0,-0.13333333,0,420)" />
    <path
       id="path75"
       d="m 546,669 h 32.578"
       style="fill:none;stroke:#262626;stroke-width:4.998;stroke-linecap:square;stroke-linejoin:round;stroke-miterlimit:10;stroke-dasharray:none;stroke-opacity:1"
       transform="matrix(0.13333333,0,0,-0.13333333,0,420)" />
    <path
       id="path76"
       d="m 546,990 h 32.578"
       style="fill:none;stroke:#262626;stroke-width:4.998;stroke-linecap:square;stroke-linejoin:round;stroke-miterlimit:10;stroke-dasharray:none;stroke-opacity:1"
       transform="matrix(0.13333333,0,0,-0.13333333,0,420)" />
    <path
       id="path77"
       d="m 546,1311 h 32.578"
       style="fill:none;stroke:#262626;stroke-width:4.998;stroke-linecap:square;stroke-linejoin:round;stroke-miterlimit:10;stroke-dasharray:none;stroke-opacity:1"
       transform="matrix(0.13333333,0,0,-0.13333333,0,420)" />
    <path
       id="path78"
       d="m 546,1632 h 32.578"
       style="fill:none;stroke:#262626;stroke-width:4.998;stroke-linecap:square;stroke-linejoin:round;stroke-miterlimit:10;stroke-dasharray:none;stroke-opacity:1"
       transform="matrix(0.13333333,0,0,-0.13333333,0,420)" />
    <path
       id="path79"
       d="m 546,1953 h 32.578"
       style="fill:none;stroke:#262626;stroke-width:4.998;stroke-linecap:square;stroke-linejoin:round;stroke-miterlimit:10;stroke-dasharray:none;stroke-opacity:1"
       transform="matrix(0.13333333,0,0,-0.13333333,0,420)" />
    <path
       id="path80"
       d="m 546,2274 h 32.578"
       style="fill:none;stroke:#262626;stroke-width:4.998;stroke-linecap:square;stroke-linejoin:round;stroke-miterlimit:10;stroke-dasharray:none;stroke-opacity:1"
       transform="matrix(0.13333333,0,0,-0.13333333,0,420)" />
    <path
       id="path81"
       d="m 546,2595 h 32.578"
       style="fill:none;stroke:#262626;stroke-width:4.998;stroke-linecap:square;stroke-linejoin:round;stroke-miterlimit:10;stroke-dasharray:none;stroke-opacity:1"
       transform="matrix(0.13333333,0,0,-0.13333333,0,420)" />
    <path
       id="path82"
       d="m 546,2916 h 32.578"
       style="fill:none;stroke:#262626;stroke-width:4.998;stroke-linecap:square;stroke-linejoin:round;stroke-miterlimit:10;stroke-dasharray:none;stroke-opacity:1"
       transform="matrix(0.13333333,0,0,-0.13333333,0,420)" />
    <path
       id="path83"
       d="m 3804,348 h -32.58"
       style="fill:none;stroke:#262626;stroke-width:4.998;stroke-linecap:square;stroke-linejoin:round;stroke-miterlimit:10;stroke-dasharray:none;stroke-opacity:1"
       transform="matrix(0.13333333,0,0,-0.13333333,0,420)" />
    <path
       id="path84"
       d="m 3804,669 h -32.58"
       style="fill:none;stroke:#262626;stroke-width:4.998;stroke-linecap:square;stroke-linejoin:round;stroke-miterlimit:10;stroke-dasharray:none;stroke-opacity:1"
       transform="matrix(0.13333333,0,0,-0.13333333,0,420)" />
    <path
       id="path85"
       d="m 3804,990 h -32.58"
       style="fill:none;stroke:#262626;stroke-width:4.998;stroke-linecap:square;stroke-linejoin:round;stroke-miterlimit:10;stroke-dasharray:none;stroke-opacity:1"
       transform="matrix(0.13333333,0,0,-0.13333333,0,420)" />
    <path
       id="path86"
       d="m 3804,1311 h -32.58"
       style="fill:none;stroke:#262626;stroke-width:4.998;stroke-linecap:square;stroke-linejoin:round;stroke-miterlimit:10;stroke-dasharray:none;stroke-opacity:1"
       transform="matrix(0.13333333,0,0,-0.13333333,0,420)" />
    <path
       id="path87"
       d="m 3804,1632 h -32.58"
       style="fill:none;stroke:#262626;stroke-width:4.998;stroke-linecap:square;stroke-linejoin:round;stroke-miterlimit:10;stroke-dasharray:none;stroke-opacity:1"
       transform="matrix(0.13333333,0,0,-0.13333333,0,420)" />
    <path
       id="path88"
       d="m 3804,1953 h -32.58"
       style="fill:none;stroke:#262626;stroke-width:4.998;stroke-linecap:square;stroke-linejoin:round;stroke-miterlimit:10;stroke-dasharray:none;stroke-opacity:1"
       transform="matrix(0.13333333,0,0,-0.13333333,0,420)" />
    <path
       id="path89"
       d="m 3804,2274 h -32.58"
       style="fill:none;stroke:#262626;stroke-width:4.998;stroke-linecap:square;stroke-linejoin:round;stroke-miterlimit:10;stroke-dasharray:none;stroke-opacity:1"
       transform="matrix(0.13333333,0,0,-0.13333333,0,420)" />
    <path
       id="path90"
       d="m 3804,2595 h -32.58"
       style="fill:none;stroke:#262626;stroke-width:4.998;stroke-linecap:square;stroke-linejoin:round;stroke-miterlimit:10;stroke-dasharray:none;stroke-opacity:1"
       transform="matrix(0.13333333,0,0,-0.13333333,0,420)" />
    <path
       id="path91"
       d="m 3804,2916 h -32.58"
       style="fill:none;stroke:#262626;stroke-width:4.998;stroke-linecap:square;stroke-linejoin:round;stroke-miterlimit:10;stroke-dasharray:none;stroke-opacity:1"
       transform="matrix(0.13333333,0,0,-0.13333333,0,420)" />
    <path
       id="path92"
       d="m 2.7525391,-7.2298828 c -0.6679688,0 -1.265625,0.3046875 -1.6289063,0.796875 -0.46874999,0.6328125 -0.69140624,1.59375 -0.69140624,2.9296875 0,2.4492187 0.79687504,3.73828124 2.32031254,3.73828124 1.5,0 2.3085937,-1.28906254 2.3085937,-3.66796874 0,-1.40625 -0.2109375,-2.34375 -0.6796875,-3 -0.375,-0.5039063 -0.9609375,-0.796875 -1.6289062,-0.796875 z m 0,0.7851562 c 0.9492187,0 1.4179687,0.9726563 1.4179687,2.9296875 0,2.0507813 -0.46875,3.01171879 -1.4414062,3.01171879 -0.9257813,0 -1.40625,-0.99609379 -1.40625,-2.98828129 0,-1.9804687 0.4804687,-2.953125 1.4296875,-2.953125 z M -2.8109375,-37.244531 V -32.1 h 0.8789062 v -7.230469 H -2.50625 c -0.3164063,1.113281 -0.515625,1.265625 -1.875,1.441406 v 0.644532 z m 5.7246094,-2.085938 c -0.6679688,0 -1.265625,0.304688 -1.6289063,0.796875 -0.46874998,0.632813 -0.69140623,1.59375 -0.69140623,2.929688 0,2.449218 0.79687503,3.738281 2.32031253,3.738281 1.5,0 2.3085937,-1.289063 2.3085937,-3.667969 0,-1.40625 -0.2109375,-2.34375 -0.6796875,-3 -0.375,-0.503906 -0.9609375,-0.796875 -1.6289062,-0.796875 z m 0,0.785156 c 0.9492187,0 1.4179687,0.972657 1.4179687,2.929688 0,2.050781 -0.46875,3.011719 -1.4414062,3.011719 -0.9257813,0 -1.40625,-0.996094 -1.40625,-2.988282 0,-1.980468 0.4804687,-2.953125 1.4296875,-2.953125 z m -3.25195315,-26.52246 H -4.0765625 c 0.09375,-0.597657 0.4101562,-0.984375 1.2890625,-1.511719 l 0.9960937,-0.5625 c 0.98437505,-0.550781 1.50000005,-1.289063 1.50000005,-2.179688 0,-0.597656 -0.24609375,-1.160156 -0.65625,-1.546875 -0.42187505,-0.375 -0.94921875,-0.5625 -1.61718755,-0.5625 -0.9023437,0 -1.5703125,0.328125 -1.9570312,0.9375 -0.2460938,0.386719 -0.3632813,0.832032 -0.375,1.570313 h 0.8789062 c 0.023438,-0.492188 0.082031,-0.785156 0.2109375,-1.019531 0.2226563,-0.445313 0.6796875,-0.714844 1.21875,-0.714844 0.796875,0 1.3945313,0.574219 1.3945313,1.359375 0,0.574219 -0.328125,1.078125 -0.9609375,1.441406 l -0.9140625,0.539063 c -1.4765625,0.84375 -1.9101563,1.523437 -1.9921875,3.105468 h 4.72265625 z m 3.25195315,-6.363282 c -0.6679688,0 -1.265625,0.304688 -1.6289063,0.796875 -0.46874998,0.632813 -0.69140623,1.59375 -0.69140623,2.929688 0,2.449219 0.79687503,3.738281 2.32031253,3.738281 1.5,0 2.3085937,-1.289062 2.3085937,-3.667969 0,-1.40625 -0.2109375,-2.34375 -0.6796875,-3 -0.375,-0.503906 -0.9609375,-0.796875 -1.6289062,-0.796875 z m 0,0.785157 c 0.9492187,0 1.4179687,0.972656 1.4179687,2.929687 0,2.050781 -0.46875,3.011719 -1.4414062,3.011719 -0.9257813,0 -1.40625,-0.996094 -1.40625,-2.988281 0,-1.980469 0.4804687,-2.953125 1.4296875,-2.953125 z m -6.0996094,-28.983399 h 0.46875 c 0.9609375,0 1.4765625,0.445313 1.4765625,1.324219 0,0.902344 -0.5507813,1.453125 -1.4648438,1.453125 -0.9609375,0 -1.4414062,-0.492188 -1.5,-1.546875 H -5.084375 c 0.046875,0.574219 0.140625,0.960937 0.3164062,1.277344 0.3632813,0.703125 1.0546875,1.054687 2.0273438,1.054687 1.453125,0 2.40234375,-0.878906 2.40234375,-2.25 0,-0.925781 -0.3515625,-1.417969 -1.20703125,-1.722653 0.66796875,-0.26953 0.99609375,-0.77344 0.99609375,-1.5 0,-1.24219 -0.80859375,-1.99219 -2.16796875,-1.99219 -1.4296875,0 -2.1796875,0.80859 -2.2148438,2.33203 h 0.8789063 c 0.011719,-0.44531 0.046875,-0.69141 0.1640625,-0.91406 0.1992187,-0.41016 0.6328125,-0.64453 1.1835937,-0.64453 0.7851563,0 1.2539063,0.46875 1.2539063,1.2539 0,0.50391 -0.1757813,0.82032 -0.5742188,0.98438 -0.234375,0.10547 -0.5507812,0.14062 -1.1601562,0.15234 z m 6.0996094,-3.902343 c -0.6679688,0 -1.265625,0.30469 -1.6289063,0.79687 -0.46874998,0.63282 -0.69140623,1.59375 -0.69140623,2.929692 0,2.449219 0.79687503,3.738281 2.32031253,3.738281 1.5,0 2.3085937,-1.289062 2.3085937,-3.667969 0,-1.406254 -0.2109375,-2.343754 -0.6796875,-3.000004 -0.375,-0.5039 -0.9609375,-0.79687 -1.6289062,-0.79687 z m 0,0.78516 c 0.9492187,0 1.4179687,0.97265 1.4179687,2.929683 0,2.050781 -0.46875,3.011719 -1.4414062,3.011719 -0.9257813,0 -1.40625,-0.996094 -1.40625,-2.988281 0,-1.980471 0.4804687,-2.953121 1.4296875,-2.953121 z M -2.13125,-130.14492 v 1.74609 h 0.8789062 v -1.74609 h 1.05468755 v -0.79688 H -1.2523438 v -4.6875 H -1.896875 l -3.2226563,4.54688 v 0.9375 z m 0,-0.79688 h -2.2148438 l 2.2148438,-3.1875 z m 5.0449219,-4.6875 c -0.6679688,0 -1.265625,0.30469 -1.6289063,0.79688 -0.46874998,0.63281 -0.69140623,1.59375 -0.69140623,2.92969 0,2.44921 0.79687503,3.73828 2.32031253,3.73828 1.5,0 2.3085937,-1.28907 2.3085937,-3.66797 0,-1.40625 -0.2109375,-2.34375 -0.6796875,-3 -0.375,-0.50391 -0.9609375,-0.79688 -1.6289062,-0.79688 z m 0,0.78516 c 0.9492187,0 1.4179687,0.97266 1.4179687,2.92969 0,2.05078 -0.46875,3.01172 -1.4414062,3.01172 -0.9257813,0 -1.40625,-0.9961 -1.40625,-2.98829 0,-1.98046 0.4804687,-2.95312 1.4296875,-2.95312 z m -3.55664065,-32.74512 H -4.2992188 l -0.5273437,3.85547 h 0.8085937 c 0.4101563,-0.48047 0.75,-0.65625 1.3007813,-0.65625 0.9492187,0 1.546875,0.65625 1.546875,1.69922 0,1.01953 -0.5976563,1.64062 -1.546875,1.64062 -0.7734375,0 -1.2421875,-0.38671 -1.453125,-1.18359 h -0.8789063 c 0.1171875,0.57422 0.2226563,0.85547 0.4335938,1.11328 0.3984375,0.53906 1.1132812,0.85547 1.9101562,0.85547 1.4296875,0 2.43750005,-1.04297 2.43750005,-2.54297 0,-1.39453 -0.93750005,-2.35547 -2.29687505,-2.35547 -0.4921875,0 -0.9023437,0.12891 -1.3007812,0.42188 l 0.2695312,-1.98047 h 2.95312505 z m 3.55664065,-0.14062 c -0.6679688,0 -1.265625,0.30468 -1.6289063,0.79687 -0.46874998,0.63281 -0.69140623,1.59375 -0.69140623,2.92969 0,2.44922 0.79687503,3.73828 2.32031253,3.73828 1.5,0 2.3085937,-1.28906 2.3085937,-3.66797 0,-1.40625 -0.2109375,-2.34375 -0.6796875,-3 -0.375,-0.5039 -0.9609375,-0.79687 -1.6289062,-0.79687 z m 0,0.78515 c 0.9492187,0 1.4179687,0.97266 1.4179687,2.92969 0,2.05078 -0.46875,3.01172 -1.4414062,3.01172 -0.9257813,0 -1.40625,-0.99609 -1.40625,-2.98828 0,-1.98047 0.4804687,-2.95313 1.4296875,-2.95313 z m -3.3339844,-30.99902 c -0.17578125,-1.18359 -0.9375,-1.88672 -2.015625,-1.88672 -0.7734375,0 -1.4765625,0.38672 -1.8984375,1.03125 -0.4453125,0.71484 -0.6328125,1.59375 -0.6328125,2.90625 0,1.21875 0.1640625,1.98047 0.5976562,2.625 0.375,0.58594 0.9960938,0.90234 1.78125,0.90234 1.3476563,0 2.32031255,-1.01953 2.32031255,-2.42578 0,-1.32422 -0.90234375,-2.26172 -2.17968755,-2.26172 -0.6914062,0 -1.2421875,0.25782 -1.6289062,0.78516 0.011719,-1.79297 0.5742187,-2.77734 1.5820312,-2.77734 0.6210938,0 1.0546875,0.39843 1.1953125,1.10156 z m -2.1328125,1.66406 c 0.8554687,0 1.3828125,0.59766 1.3828125,1.5586 0,0.91406 -0.5976563,1.57031 -1.40625,1.57031 -0.8203125,0 -1.4414063,-0.69141 -1.4414063,-1.60547 0,-0.90234 0.5976563,-1.52344 1.4648438,-1.52344 z m 5.4667969,-3.55078 c -0.6679688,0 -1.265625,0.30469 -1.6289063,0.79688 -0.46874998,0.63281 -0.69140623,1.59375 -0.69140623,2.92968 0,2.44922 0.79687503,3.73828 2.32031253,3.73828 1.5,0 2.3085937,-1.28906 2.3085937,-3.66796 0,-1.40625 -0.2109375,-2.34375 -0.6796875,-3 -0.375,-0.50391 -0.9609375,-0.79688 -1.6289062,-0.79688 z m 0,0.78516 c 0.9492187,0 1.4179687,0.97265 1.4179687,2.92968 0,2.05079 -0.46875,3.01172 -1.4414062,3.01172 -0.9257813,0 -1.40625,-0.99609 -1.40625,-2.98828 0,-1.98047 0.4804687,-2.95312 1.4296875,-2.95312 z m -3.11132815,-32.74512 H -4.94375 v 0.86719 h 3.8320312 c -1.6875,2.41406 -2.3789062,3.89062 -2.90625,6.22265 h 0.9375 c 0.3867188,-2.27343 1.2773438,-4.21875 2.88281255,-6.35156 z m 3.11132815,-0.14062 c -0.6679688,0 -1.265625,0.30468 -1.6289063,0.79687 -0.46874998,0.63281 -0.69140623,1.59375 -0.69140623,2.92969 0,2.44922 0.79687503,3.73828 2.32031253,3.73828 1.5,0 2.3085937,-1.28906 2.3085937,-3.66797 0,-1.40625 -0.2109375,-2.34375 -0.6796875,-3 -0.375,-0.50391 -0.9609375,-0.79687 -1.6289062,-0.79687 z m 0,0.78515 c 0.9492187,0 1.4179687,0.97266 1.4179687,2.92969 0,2.05078 -0.46875,3.01172 -1.4414062,3.01172 -0.9257813,0 -1.40625,-0.9961 -1.40625,-2.98828 0,-1.98047 0.4804687,-2.95313 1.4296875,-2.95313 z m -4.4003907,-29.46387 c 0.7382813,-0.44531 0.96093755,-0.80859 0.96093755,-1.48828 0,-1.13672 -0.86718755,-1.93359 -2.12109375,-1.93359 -1.2539063,0 -2.1328125,0.79687 -2.1328125,1.92187 0,0.69141 0.234375,1.04297 0.9609375,1.5 -0.8085938,0.41016 -1.2070313,0.9961 -1.2070313,1.80469 0,1.3125 0.9609375,2.23828 2.3789063,2.23828 1.3945312,0 2.37890625,-0.92578 2.37890625,-2.23828 0,-0.80859 -0.41015625,-1.39453 -1.21875005,-1.80469 z m -1.1601562,-2.63671 c 0.75,0 1.21875,0.44531 1.21875,1.17187 0,0.67969 -0.4804688,1.125 -1.21875,1.125 -0.75,0 -1.2304688,-0.44531 -1.2304688,-1.14844 0,-0.70312 0.4804688,-1.14843 1.2304688,-1.14843 z m 0,3.03515 c 0.8789062,0 1.4765625,0.58594 1.4765625,1.41797 0,0.86719 -0.5976563,1.44141 -1.5,1.44141 -0.8554688,0 -1.4648438,-0.58594 -1.4648438,-1.42969 0,-0.85547 0.5976563,-1.42969 1.4882813,-1.42969 z m 5.5605469,-3.82031 c -0.6679688,0 -1.265625,0.30469 -1.6289063,0.79687 -0.46874998,0.63282 -0.69140623,1.59375 -0.69140623,2.92969 0,2.44922 0.79687503,3.73828 2.32031253,3.73828 1.5,0 2.3085937,-1.28906 2.3085937,-3.66797 0,-1.40625 -0.2109375,-2.34375 -0.6796875,-3 -0.375,-0.5039 -0.9609375,-0.79687 -1.6289062,-0.79687 z m 0,0.78516 c 0.9492187,0 1.4179687,0.97265 1.4179687,2.92968 0,2.05078 -0.46875,3.01172 -1.4414062,3.01172 -0.9257813,0 -1.40625,-0.99609 -1.40625,-2.98828 0,-1.98047 0.4804687,-2.95312 1.4296875,-2.95312 z m 0,0"
       style="fill:#262626;fill-opacity:1;fill-rule:nonzero;stroke:none"
       aria-label="0&#10;10&#10;20&#10;30&#10;40&#10;50&#10;60&#10;70&#10;80"
       transform="matrix(1.3333333,0,0,1.3333333,59.466667,378.8)" />
    <path
       id="path93"
       d="M 5.2154297,-2.4148437 6.0474609,-7.8125e-4 H 7.1841797 L 4.3716797,-8.028125 H 3.0474609 L 0.18808594,-7.8125e-4 H 1.2779297 l 0.84375,-2.41406245 z m -0.28125,-0.8554688 H 2.3794922 l 1.3242187,-3.65625 z m 7.2187503,-0.890625 c -0.01172,-1.1367187 -0.761719,-1.7695312 -2.085938,-1.7695312 -1.3476561,0 -2.2148436,0.6914062 -2.2148436,1.7578125 0,0.9023437 0.46875,1.3359375 1.828125,1.6640625 l 0.8554686,0.2109375 c 0.644531,0.1523437 0.890625,0.3867187 0.890625,0.7851562 0,0.55078125 -0.539062,0.9140625 -1.335937,0.9140625 -0.5039066,0 -0.9140628,-0.140625 -1.1484378,-0.38671875 C 8.8013672,-1.1492187 8.7310547,-1.3132812 8.6841797,-1.7117187 H 7.7115234 c 0.046875,1.3242187 0.796875,1.96874995 2.2968746,1.96874995 1.453125,0 2.378907,-0.71484375 2.378907,-1.82812495 0,-0.8671875 -0.480469,-1.3359375 -1.628907,-1.6054688 L 9.8794922,-3.3875 c -0.75,-0.1757812 -1.0664063,-0.421875 -1.0664063,-0.8320312 0,-0.5390625 0.46875,-0.8671875 1.2187501,-0.8671875 0.738281,0 1.136719,0.3164062 1.160156,0.9257812 z m 1.280273,6.5625 h 0.925781 v -3.01171875 c 0.480469,0.59765625 1.019532,0.8671875 1.769532,0.8671875 1.488281,0 2.460937,-1.20703125 2.460937,-3.04687495 0,-1.9335938 -0.949219,-3.140625 -2.472656,-3.140625 -0.785156,0 -1.40625,0.3515625 -1.839844,1.03125 v -0.8671875 h -0.84375 z M 15.964453,-5.075 c 1.007813,0 1.664063,0.890625 1.664063,2.2734375 0,1.3007813 -0.667969,2.19140625 -1.664063,2.19140625 -0.984375,0 -1.605469,-0.87890625 -1.605469,-2.22656245 0,-1.359375 0.621094,-2.2382813 1.605469,-2.2382813 z m 8.636719,2.4960938 c 0,-0.8789063 -0.07031,-1.40625 -0.234375,-1.8398438 -0.375,-0.9375 -1.253906,-1.5117187 -2.332031,-1.5117187 -1.605469,0 -2.636719,1.21875 -2.636719,3.1289062 0,1.8984375 0.984375,3.05859375 2.613281,3.05859375 1.324219,0 2.238281,-0.75 2.460938,-2.00390625 h -0.914063 c -0.257812,0.75 -0.773437,1.1484375 -1.511719,1.1484375 -0.585937,0 -1.078125,-0.2578125 -1.382812,-0.75 -0.222656,-0.328125 -0.304688,-0.65625 -0.316406,-1.2304687 z m -4.230469,-0.75 c 0.08203,-1.0664063 0.726563,-1.7578125 1.652344,-1.7578125 0.9375,0 1.582031,0.7265625 1.582031,1.7578125 z m 9.878906,-0.5039063 c -0.03516,-0.5625 -0.164062,-0.9257812 -0.386718,-1.2421875 -0.386719,-0.5390625 -1.089844,-0.8554687 -1.886719,-0.8554687 -1.558594,0 -2.566406,1.2304687 -2.566406,3.140625 0,1.8632812 0.996093,3.04687495 2.554687,3.04687495 1.371094,0 2.25,-0.83203125 2.355469,-2.23828125 h -0.925781 c -0.152344,0.9257813 -0.621094,1.3828125 -1.40625,1.3828125 -1.019532,0 -1.617188,-0.8203125 -1.617188,-2.1914062 0,-1.4414063 0.597656,-2.296875 1.59375,-2.296875 0.773438,0 1.253906,0.4570312 1.359375,1.2539062 z m 3.120118,-1.9335937 h -0.949219 v -1.5820313 h -0.914063 v 1.5820313 h -0.785156 v 0.75 h 0.785156 v 4.35937495 c 0,0.5859375 0.398438,0.9140625 1.113282,0.9140625 0.234375,0 0.433593,-0.0234375 0.75,-0.0820313 v -0.7734375 c -0.140625,0.0351563 -0.257813,0.046875 -0.445313,0.046875 -0.398437,0 -0.503906,-0.10546875 -0.503906,-0.51562505 v -3.9492186 h 0.949219 z m 9.196289,5.22656245 c -0.09375,0.0234375 -0.140625,0.0234375 -0.199219,0.0234375 -0.316406,0 -0.492188,-0.1640625 -0.492188,-0.45703125 v -3.3867187 c 0,-1.0195313 -0.75,-1.5703125 -2.167968,-1.5703125 -0.84375,0 -1.511719,0.2460937 -1.910157,0.6679687 -0.269531,0.3046875 -0.375,0.6328125 -0.398437,1.2070313 h 0.925781 c 0.07031,-0.7148438 0.492188,-1.03125 1.347656,-1.03125 0.84375,0 1.289063,0.3046875 1.289063,0.8554687 v 0.2460938 c -0.01172,0.3984375 -0.210938,0.5390625 -0.949219,0.6445312 -1.300781,0.1640625 -1.5,0.1992188 -1.851562,0.3515625 -0.667969,0.28125 -1.019532,0.7851563 -1.019532,1.5351563 0,1.0429687 0.726563,1.71093745 1.898438,1.71093745 0.726562,0 1.3125,-0.2578125 1.957031,-0.85546875 0.07031,0.59765625 0.351563,0.85546875 0.949219,0.85546875 0.199219,0 0.316406,-0.0234375 0.621094,-0.10546875 z M 40.960547,-1.8171875 c 0,0.3046875 -0.08203,0.4921875 -0.363281,0.75 -0.375,0.33984375 -0.820313,0.515625 -1.359375,0.515625 -0.714844,0 -1.136719,-0.33984375 -1.136719,-0.9257812 0,-0.5976563 0.398437,-0.9140625 1.382812,-1.0546875 0.984375,-0.1289063 1.171875,-0.1757813 1.476563,-0.3164063 z m 2.613281,-3.9492187 v 5.76562495 h 0.925781 V -3.1765625 c 0,-1.1835937 0.609375,-1.9570312 1.558594,-1.9570312 0.726563,0 1.183594,0.4453125 1.183594,1.1367187 v 3.99609375 h 0.914062 V -4.3601562 c 0,-0.9609375 -0.714843,-1.5703125 -1.828125,-1.5703125 -0.855468,0 -1.40625,0.328125 -1.910156,1.1367187 v -0.9726562 z m 9.782227,0 v 0.8320312 c -0.457032,-0.6914062 -0.960938,-0.9960937 -1.6875,-0.9960937 -1.40625,0 -2.367188,1.3007812 -2.367188,3.140625 0,0.9726562 0.234375,1.6757812 0.726563,2.2617187 0.421875,0.50390625 0.972656,0.78515625 1.570312,0.78515625 0.691406,0 1.195313,-0.31640625 1.675781,-1.04296875 V -0.48125 c 0,1.5351563 -0.433593,2.109375 -1.570312,2.109375 -0.785156,0 -1.195313,-0.3046875 -1.277344,-0.97265625 h -0.9375 c 0.08203,1.06640625 0.9375,1.74609375 2.191406,1.74609375 0.84375,0 1.546875,-0.28125 1.921875,-0.7382812 C 54.047461,1.1242188 54.211523,0.409375 54.211523,-0.95 v -4.8164062 z m -1.605469,0.6796875 c 0.972656,0 1.523437,0.8203125 1.523437,2.2851562 0,1.3945313 -0.5625,2.203125 -1.523437,2.203125 -0.9375,0 -1.488281,-0.8203125 -1.488281,-2.2382812 0,-1.40625 0.550781,-2.25 1.488281,-2.25 z m 4.957031,-2.9414063 h -0.925781 v 8.02734375 h 0.925781 z m 6.416016,5.4492188 c 0,-0.8789063 -0.07031,-1.40625 -0.234375,-1.8398438 -0.375,-0.9375 -1.253906,-1.5117187 -2.332031,-1.5117187 -1.605469,0 -2.636719,1.21875 -2.636719,3.1289062 0,1.8984375 0.984375,3.05859375 2.613281,3.05859375 1.324219,0 2.238281,-0.75 2.460938,-2.00390625 h -0.914063 c -0.257812,0.75 -0.773437,1.1484375 -1.511719,1.1484375 -0.585937,0 -1.078125,-0.2578125 -1.382812,-0.75 -0.222656,-0.328125 -0.304688,-0.65625 -0.316406,-1.2304687 z m -4.230469,-0.75 c 0.08203,-1.0664063 0.726563,-1.7578125 1.652344,-1.7578125 0.9375,0 1.582031,0.7265625 1.582031,1.7578125 z M 69.401953,-8.028125 H 67.351172 V 2.33125 h 2.050781 V 1.534375 H 68.265234 V -7.23125 h 1.136719 z m 5.753906,0 h -0.914062 v 2.9882813 c -0.386719,-0.5859375 -1.007813,-0.890625 -1.769531,-0.890625 -1.5,0 -2.484375,1.1953125 -2.484375,3.0351562 0,1.9453125 0.949218,3.15234375 2.519531,3.15234375 0.785156,0 1.335937,-0.3046875 1.828125,-1.01953125 v 0.76171875 h 0.820312 z M 72.624609,-5.075 c 0.984375,0 1.617188,0.8671875 1.617188,2.2617188 0,1.3242187 -0.644531,2.20312495 -1.605469,2.20312495 -1.019531,0 -1.6875,-0.89062495 -1.6875,-2.22656245 0,-1.3476563 0.667969,-2.2382813 1.675781,-2.2382813 z m 8.844727,2.4960938 c 0,-0.8789063 -0.07031,-1.40625 -0.234375,-1.8398438 -0.375,-0.9375 -1.253906,-1.5117187 -2.332031,-1.5117187 -1.605469,0 -2.636719,1.21875 -2.636719,3.1289062 0,1.8984375 0.984375,3.05859375 2.613281,3.05859375 1.324219,0 2.238281,-0.75 2.460938,-2.00390625 h -0.914063 c -0.257812,0.75 -0.773437,1.1484375 -1.511719,1.1484375 -0.585937,0 -1.078125,-0.2578125 -1.382812,-0.75 -0.222656,-0.328125 -0.304688,-0.65625 -0.316406,-1.2304687 z m -4.230469,-0.75 c 0.08203,-1.0664063 0.726563,-1.7578125 1.652344,-1.7578125 0.9375,0 1.582031,0.7265625 1.582031,1.7578125 z m 9.140625,-2.4375 v 0.8320312 c -0.457031,-0.6914062 -0.960937,-0.9960937 -1.6875,-0.9960937 -1.40625,0 -2.367187,1.3007812 -2.367187,3.140625 0,0.9726562 0.234375,1.6757812 0.726562,2.2617187 0.421875,0.50390625 0.972656,0.78515625 1.570313,0.78515625 0.691406,0 1.195312,-0.31640625 1.675781,-1.04296875 V -0.48125 c 0,1.5351563 -0.433594,2.109375 -1.570313,2.109375 -0.785156,0 -1.195312,-0.3046875 -1.277343,-0.97265625 h -0.9375 c 0.08203,1.06640625 0.9375,1.74609375 2.191406,1.74609375 0.84375,0 1.546875,-0.28125 1.921875,-0.7382812 C 87.070898,1.1242188 87.234961,0.409375 87.234961,-0.95 v -4.8164062 z m -1.605469,0.6796875 c 0.972657,0 1.523438,0.8203125 1.523438,2.2851562 0,1.3945313 -0.5625,2.203125 -1.523438,2.203125 -0.9375,0 -1.488281,-0.8203125 -1.488281,-2.2382812 0,-1.40625 0.550781,-2.25 1.488281,-2.25 z M 88.310156,2.33125 h 2.039063 V -8.028125 h -2.039063 v 0.796875 h 1.125 v 8.765625 h -1.125 z m 0,0"
       style="fill:#262626;fill-opacity:1;fill-rule:nonzero;stroke:none"
       aria-label="Aspect angle [deg]"
       transform="matrix(0,-1.3333333,1.3333333,0,44.266667,263.2)" />
    <path
       id="path94"
       d="m 546.047,348 h 35.855 l 0.993,1077.16 2.23,-153.91 0.051,-3.41 3.172,-216.32 0.047,-3.34 3.23,-213.52 0.047,-3.215 3.176,-200.605 0.047,-3.043 3.222,-190.176 0.055,-2.793 1.582,-79.754 1.637,80.809 0.05,2.539 3.172,154.312 0.047,2.282 3.231,139.492 0.047,2.015 3.175,120.704 0.047,1.761 3.223,106.364 0.047,1.511 3.175,89.767 0.051,1.3 3.223,77.4 0.051,1.1 3.172,64.12 0.046,0.92 3.231,54.19 0.047,0.75 3.222,44.25 0.047,0.61 3.176,34.83 0.055,0.48 3.219,27.53 0.05,0.36 3.172,20.31 0.051,0.27 3.219,14.54 0.054,0.18 3.176,8.9 0.047,0.1 3.223,4.06 0.047,0.03 1.289,0.34 1.886,-0.7 0.051,-0.04 3.223,-4.27 0.051,-0.09 3.218,-7.78 0.055,-0.14 3.176,-10.75 0.047,-0.19 3.222,-13.8 0.047,-0.23 3.176,-16.15 0.055,-0.27 3.218,-18.71 0.051,-0.3 3.172,-20.44 0.051,-0.33 3.219,-22.62 0.054,-0.37 3.176,-23.97 0.047,-0.39 3.223,-25.93 0.047,-0.41 3.23,-27.35 0.047,-0.43 3.172,-28.15 0.051,-0.45 3.218,-29.72 0.055,-0.46 3.168,-30.31 0.055,-0.48 3.222,-31.76 0.047,-0.5 3.176,-32.14 0.047,-0.5 3.226,-33.41 0.051,-0.52 3.172,-33.566 0.051,-0.527 3.219,-34.754 0.054,-0.539 3.176,-34.824 0.047,-0.551 3.223,-35.918 0.046,-0.559 3.231,-36.386 0.047,-0.567 3.172,-36.238 0.05,-0.57 3.219,-37.207 0.051,-0.575 3.172,-37.007 0.055,-0.582 3.222,-37.926 0.047,-0.582 3.176,-37.617 0.047,-0.594 3.226,-38.43 0.051,-0.594 3.172,-38.05 0.051,-0.594 3.218,-38.856 0.055,-0.601 3.223,-39.035 0.047,-0.602 3.175,-38.562 0.047,-0.606 3.223,-39.238 0.055,-0.606 3.172,-38.699 0.05,-0.601 3.172,-38.743 0.051,0.161 0.047,0.601 3.172,38.785 0.054,0.606 3.223,39.371 0.047,0.605 3.176,38.688 0.047,0.605 3.226,39.309 0.051,0.605 3.223,39.325 0.046,0.605 3.172,38.566 0.055,0.602 3.223,39.168 0.047,0.602 3.175,38.355 0.047,0.602 3.223,38.621 0.055,0.593 3.171,37.676 0.051,0.586 3.223,37.859 0.047,0.579 3.172,36.804 0.054,0.575 3.223,36.796 0.047,0.559 3.223,36.133 0.054,0.551 3.172,34.867 0.051,0.535 3.223,34.621 0.046,0.52 3.172,33.199 0.051,0.508 3.227,32.673 0.046,0.49 3.176,31 0.047,0.48 3.223,30.19 0.054,0.45 3.172,28.33 0.051,0.43 3.223,27.18 0.047,0.41 3.226,25.35 0.047,0.38 3.176,22.95 0.047,0.35 3.222,21.05 0.055,0.31 3.168,18.29 0.055,0.26 3.222,15.79 0.047,0.21 3.172,12.46 0.051,0.17 3.227,9.07 0.046,0.11 3.176,5 0.047,0.05 2.082,0.96 1.141,-0.3 0.054,-0.03 3.223,-4.36 0.047,-0.11 3.176,-9.89 0.047,-0.2 3.226,-16.5 0.051,-0.3 3.172,-23.42 0.047,-0.43 3.222,-31.94 0.047,-0.56 3.176,-40.49 0.055,-0.71 3.222,-51.51 0.047,-0.87 3.172,-62.23 0.051,-1.07 3.226,-76.114 0.047,-1.277 3.223,-90.2 0.051,-1.5 3.172,-103.437 0.054,-1.734 3.223,-120.481 0.047,-1.977 3.176,-133.726 0.046,-2.203 3.223,-149.946 0.055,-2.406 0.047,-2.398 3.125,154.683 0.047,2.563 3.222,170.016 0.047,2.66 3.176,171.742 0.055,2.703 3.222,174.632 0.047,2.67 3.223,170.74 0.054,2.58 3.172,161.11 0.047,2.46 3.223,154.6 0.051,2.3 2.48,112.31 L 938.797,348 h 0.641 0.054 3.223 0.047 3.176 0.046 3.223 0.055 3.172 0.046 3.223 0.051 3.226 0.047 3.176 0.047 3.223 0.054 3.168 0.051 3.223 0.051 3.171 0.047 3.231 0.047 3.175 0.047 3.223 0.055 3.218 0.051 3.172 0.051 3.226 0.047 3.176 0.047 3.226 0.05 3.17 0.05 3.22 0.05 3.18 0.04 3.23 0.05 3.18 0.04 3.22 0.06 3.22 0.05 3.17 0.05 3.22 0.06 3.17 0.05 3.22 0.05 3.17 0.06 3.22 0.05 3.17 0.05 3.23 0.04 3.23 0.04 3.18 0.05 3.22 0.05 3.17 0.06 3.21 0.06 3.17 0.05 l 3.22,695.09 0.05,0.76 3.18,44.56 0.05,0.63 3.22,37.39 0.05,0.52 3.22,30.02 0.05,0.41 3.18,22.89 0.05,0.31 3.22,16.97 0.05,0.22 3.17,11.08 0.05,0.14 3.23,6.14 0.05,0.06 2.77,1.57 0.4,-0.03 0.05,-0.01 3.22,-2.56 0.05,-0.07 3.18,-6.23 0.05,-0.13 3.22,-9.74 0.05,-0.17 3.23,-12.81 0.04,-0.21 3.17,-15.26 0.06,-0.26 3.22,-17.92 0.05,-0.29 3.17,-19.8 0.05,-0.34 3.22,-22.13 0.05,-0.35 3.18,-23.54 0.04,-0.38 3.23,-25.48 0.05,-0.4 3.17,-26.45 0.05,-0.43 3.22,-28.14 0.06,-0.44 3.22,-29.311 0.05,-0.457 3.17,-29.856 0.05,-0.472 3.23,-31.196 0.05,-0.484 3.17,-31.465 0.05,-0.5 3.22,-32.629 0.05,-0.507 3.17,-32.723 0.06,-0.52 3.22,-33.75 0.04,-0.527 3.18,-33.629 0.05,-0.527 3.23,-34.469 0.04,-0.535 3.23,-34.723 0.04,-0.539 3.18,-34.383 0.05,-0.539 3.22,-35.027 0.05,-0.539 3.18,-34.496 0.04,-0.539 3.23,-34.918 0.05,-0.535 3.17,-34.153 0.05,-0.527 3.23,-34.254 0.04,-0.523 3.17,-32.836 0.06,-0.504 3.22,-30.973 0.05,-0.437 3.22,-21.051 0.06,-0.125 0.69,-0.895 2.48,9.996 0.05,0.348 3.22,27.281 0.05,0.457 3.17,30.188 0.05,0.472 3.23,31.11 0.04,0.48 3.18,30.324 0.05,0.477 3.22,30.16 0.05,0.461 3.18,28.902 0.05,0.446 3.22,28.386 0.05,0.426 3.22,27.25 0.05,0.41 3.18,25.567 0.04,0.383 3.23,24.527 0.05,0.367 3.17,22.594 0.05,0.344 3.23,21.226 0.04,0.313 3.18,19.019 0.04,0.282 3.23,17.21 0.05,0.247 3.17,14.675 0.05,0.207 3.22,12.43 0.06,0.168 3.22,9.723 0.05,0.129 3.17,6.718 0.05,0.078 3.23,3.684 0.05,0.031 1.88,0.586 1.29,-0.273 0.05,-0.02 3.22,-3.226 0.05,-0.078 3.17,-6.848 0.06,-0.133 3.22,-10.859 0.05,-0.199 3.17,-14.7 0.05,-0.258 3.23,-19.089 0.05,-0.332 3.17,-22.903 0.04,-0.39 3.23,-27.371 0.05,-0.45 3.22,-31.39 0.05,-0.512 3.18,-34.625 0.04,-0.57 3.23,-38.586 0.05,-0.617 3.17,-40.856 0.05,-0.652 3.22,-43.731 0.05,-0.687 3.18,-44.371 0.05,-0.696 3.22,-44.648 0.05,-0.66 3.18,-35.34 0.04,-0.313 0.9,-2.867 2.33,15.828 0.05,0.559 3.22,40.789 0.05,0.66 3.17,42.07 0.06,0.657 3.22,41.242 0.05,0.613 3.17,38.098 0.05,0.578 3.22,35.531 0.06,0.516 3.17,31.496 0.04,0.465 3.23,28.226 0.05,0.407 3.17,23.996 0.05,0.34 3.23,20.472 0.04,0.289 3.23,16.559 0.05,0.223 3.17,12.57 0.05,0.168 3.22,9.133 0.05,0.105 3.18,5.586 0.05,0.063 3.22,2.398 0.05,0.019 0.84,0.102 2.34,-0.785 0.04,-0.039 3.22,-3.586 0.06,-0.078 3.17,-6.176 0.05,-0.113 3.22,-8.731 0.05,-0.148 3.23,-11.012 0.05,-0.184 3.17,-12.902 0.05,-0.215 3.22,-15.023 0.06,-0.246 3.16,-16.496 0.06,-0.27 3.22,-18.305 0.05,-0.293 3.17,-19.406 0.05,-0.312 3.23,-20.969 0.04,-0.328 3.18,-21.77 0.05,-0.347 3.22,-23.082 0.05,-0.368 3.23,-23.925 0.04,-0.379 3.17,-24.258 0.06,-0.383 3.22,-25.242 0.05,-0.391 3.17,-25.32 0.05,-0.398 3.22,-26.028 0.05,-0.402 3.18,-25.719 0.05,-0.402 3.22,-25.758 0.05,-0.391 3.17,-22.25 0.05,-0.25 1.14,-3.211 2.09,8.508 0.05,0.328 3.22,24.133 0.05,0.391 3.17,25.16 0.06,0.394 3.22,25.5 0.05,0.391 3.17,24.731 0.05,0.378 3.22,24.559 0.05,0.371 3.18,23.461 0.05,0.359 3.22,22.946 0.05,0.34 3.17,21.578 0.06,0.324 3.21,20.738 0.06,0.313 3.22,19.422 0.05,0.289 3.17,17.672 0.05,0.269 3.22,16.301 0.05,0.242 3.18,14.262 0.05,0.207 3.22,12.512 0.05,0.171 3.17,10.219 0.05,0.145 3.23,8.062 0.05,0.106 3.17,5.476 0.05,0.067 3.22,2.879 0.05,0.023 1.64,0.379 1.59,-0.34 0.05,-0.027 3.17,-2.879 0.05,-0.071 3.22,-6.019 0.05,-0.121 3.17,-9.094 0.06,-0.168 3.22,-12.539 0.04,-0.219 3.18,-15.609 0.05,-0.273 3.23,-19.133 0.04,-0.317 3.18,-22.008 0.05,-0.367 3.22,-25.441 0.05,-0.414 3.22,-28.356 0.05,-0.457 3.18,-30.465 0.04,-0.5 3.23,-33.144 0.05,-0.527 3.18,-34.364 0.04,-0.543 3.23,-36.054 0.04,-0.559 3.17,-35.285 0.06,-0.527 2.38,-17.743 0.84,3.391 0.05,0.359 3.17,32.52 0.05,0.551 3.23,35.996 0.05,0.543 3.22,35.172 0.05,0.535 3.17,33.086 0.05,0.496 3.23,31.535 0.05,0.469 3.17,28.644 0.05,0.426 3.22,26.371 0.05,0.383 3.18,23.113 0.05,0.34 3.22,20.441 0.05,0.29 3.17,17.05 0.05,0.246 3.23,14.161 0.04,0.195 3.18,10.863 0.05,0.145 3.23,7.992 0.04,0.098 3.23,5.015 0.04,0.055 3.18,2.121 0.05,0.012 0.89,0.105 2.33,-0.691 0.05,-0.032 3.17,-3.136 0.05,-0.074 3.22,-5.633 0.06,-0.102 3.17,-7.828 0.05,-0.141 3.22,-10.187 0.05,-0.172 3.18,-11.496 0.05,-0.184 3.22,-12.605 0.05,-0.203 3.22,-14.328 0.05,-0.235 3.18,-15.605 0.05,-0.258 3.22,-17.254 0.05,-0.273 3.17,-18.282 0.05,-0.293 3.23,-19.765 0.05,-0.317 3.17,-20.55 0.04,-0.329 3.23,-21.925 0.05,-0.348 3.18,-22.723 0.04,-0.367 3.23,-22.57 0.04,-0.34 3.23,-22.578 0.05,-0.356 3.17,-22.894 0.05,-0.367 3.22,-23.676 0.06,-0.367 3.17,-23.387 0.05,-0.359 2.98,-17.149 0.24,0.293 0.05,0.125 3.18,20.649 0.04,0.371 3.23,24.347 0.05,0.379 3.17,24.207 0.05,0.379 3.22,24.918 0.06,0.399 3.22,22.234 0.05,0.344 3.17,21.73 0.05,0.336 3.22,21.68 0.06,0.328 3.17,20.73 0.05,0.317 3.22,20.273 0.05,0.301 3.17,19.051 0.05,0.293 3.23,18.269 0.04,0.278 3.18,16.789 0.05,0.25 3.22,15.722 0.05,0.235 3.22,14.039 0.05,0.172 3.18,10.812 0.05,0.164 3.22,9.426 0.05,0.125 3.18,7.387 0.04,0.101 3.22,5.34 0.06,0.067 3.17,2.953 0.05,0.023 2.23,0.617 0.99,-0.121 0.05,-0.011 3.17,-2.141 0.06,-0.055 3.22,-5.027 0.05,-0.102 3.22,-8.101 0.05,-0.149 1.39,140.676 1.79,-151.566 0.05,-0.192 3.22,-13.8 0.05,-0.235 3.17,-16.476 0.05,-0.282 3.23,-19.668 0.04,-0.324 3.18,-22.211 0.05,-0.367 3.22,-25.336 0.05,-0.41 3.18,-27.496 0.05,-0.453 3.21,-30.317 0.06,-0.484 3.22,-32.527 0.05,-0.516 3.17,-34.242 0.05,-0.567 0.35,506.938 2.87,-540.211 0.06,-0.512 3.17,-31.84 0.05,-0.433 1.04,-5.688 2.18,16.481 0.05,0.504 3.17,33.32 0.05,0.527 3.23,33.942 0.05,0.515 3.17,32.598 0.05,0.504 3.22,31.801 0.06,0.472 3.22,30.141 0.05,0.449 3.17,27.883 0.05,0.418 3.23,26.047 0.04,0.324 3.18,20.586 0.05,0.312 3.22,18.875 0.04,0.27 3.18,16.141 0.06,0.234 3.22,13.781 0.04,0.192 3.18,10.965 0.05,0.148 3.22,8.473 0.05,0.109 3.22,5.801 0.05,0.07 3.18,3.176 0.05,0.035 2.72,0.816 0.5,-0.023 0.05,-0.008 1.49,505.875 1.68,-507.894 0.05,-0.063 3.23,-4.68 0.05,-0.082 3.17,-6.543 0.05,-0.117 3.22,-8.586 0.05,-0.144 3.17,-10.274 0.06,-0.172 3.22,-12.179 0.05,-0.207 3.17,-13.629 0.05,-0.223 3.23,-15.433 0.04,-0.246 3.23,-16.958 0.04,-0.273 3.18,-18.199 0.05,-0.293 3.23,-19.016 0.04,-0.301 3.18,-19.707 0.05,-0.32 3.22,-21.004 0.05,-0.332 3.18,-21.551 0.04,-0.343 3.23,-22.641 0.04,-0.355 3.18,-22.95 0.05,-0.367 3.23,-23.879 0.04,-0.371 3.23,-24.379 0.05,-0.386 3.17,-24.372 0.05,-0.382 2.63,1083.101 0.59,-1106.644 0.05,-0.254 0.7,-2.004 2.47,13.676 0.05,0.359 3.23,23.668 0.05,0.367 3.17,23.621 0.05,0.367 3.22,23.911 0.05,0.367 3.18,23.297 0.05,0.367 3.22,23.273 0.05,0.352 3.23,22.789 0.04,0.348 3.18,21.886 0.05,0.344 3.22,21.727 0.05,0.328 3.17,19.73 0.05,0.274 3.23,17.718 0.04,0.266 3.18,16.492 0.04,0.254 3.24,15.496 0.04,0.231 3.18,13.847 0.04,0.207 3.23,12.453 0.05,0.18 3.22,10.656 0.05,0.149 3.17,8.594 0.05,0.117 3.22,6.703 0.06,0.086 3.17,4.672 0.05,0.066 1.98,0.977 1.24,-0.129 0.05,-0.012 3.18,-1.824 0.05,-0.051 3.22,-4.336 0.05,-0.086 3.17,-6.898 0.05,-0.133 3.23,-9.781 0.05,-0.172 3.22,-12.672 0.05,-0.223 3.17,-15.371 0.05,-0.258 3.22,-18.57 0.06,-0.309 3.17,-21.168 0.04,-0.351 2.79,1270.511 0.44,-1294.847 0.05,-0.398 3.18,-26.243 0.04,-0.433 3.23,-28.895 0.04,-0.457 3.18,-30.394 0.05,-0.489 3.22,-32.519 0.05,-0.508 3.22,-33.781 0.06,-0.528 3.17,-33.925 0.05,-0.528 2.68,-23.215 0.54,2.473 0.05,0.387 3.18,32.926 0.04,0.539 3.23,35.468 0.05,0.543 3.17,33.399 0.05,0.484 3.22,31.215 0.06,0.465 3.17,29.496 0.05,0.445 3.22,28.207 0.05,0.418 3.22,26.114 0.06,0.382 3.17,23.438 0.05,0.348 3.22,21.347 0.05,0.313 3.17,18.539 0.05,0.269 3.23,16.305 0.04,0.23 3.18,13.833 0.05,0.203 3.22,9.277 0.05,0.105 3.18,6.129 0.04,0.078 3.22,3.918 0.06,0.04 3.22,1.539 0.05,0.003 0.44,0.024 2.73,-0.816 0.05,-0.028 3.23,-3.078 0.05,-0.066 3.17,-5.168 0.05,-0.094 3.22,-7.277 0.05,-0.129 3.17,-9.028 0.06,-0.156 3.22,-10.766 0.05,-0.21 3.17,-13.696 0.05,-0.222 3.23,-15.188 0.05,-0.238 3.22,-16.524 0.05,-0.265 3.17,-17.52 0.05,-0.281 3.23,-18.992 0.04,-0.297 3.18,-19.809 0.05,-0.316 3.22,-21.137 0.05,-0.332 3.17,-21.719 0.06,-0.347 3.21,-22.914 0.06,-0.364 1.83,1898.198 1.34,-1921.35 0.05,-0.367 3.22,-23.903 0.05,-0.371 3.22,-24.355 0.06,-0.379 3.17,-24.281 0.05,-0.383 3.22,-24.773 0.05,-0.379 2.08,-13.399 1.09,6.211 0.06,0.363 3.22,24.817 0.05,0.387 3.17,24.695 0.05,0.39 3.22,25.036 0.06,0.386 3.17,24.684 0.05,0.391 3.22,23.464 0.05,0.356 3.17,22.301 0.06,0.347 3.22,22.098 0.05,0.336 3.22,21.348 0.05,0.324 3.17,20.136 0.06,0.305 3.22,19.442 0.04,0.293 3.18,18.046 0.05,0.274 3.22,17.121 0.05,0.258 3.18,15.625 0.04,0.234 3.23,15.043 0.05,0.149 3.17,10.093 0.05,0.149 3.22,8.918 0.05,0.117 3.23,7.035 0.05,0.09 3.17,4.859 0.05,0.055 3.22,2.664 0.05,0.023 1.94,0.438 1.23,-0.176 0.06,-0.015 3.22,-2.223 0.05,-0.055 3.17,-4.703 0.05,-0.094 3.23,-7.328 0.04,-0.133 1.94,2094.066 1.24,-2104.402 0.05,-0.214 3.22,-14.907 0.05,-0.25 3.23,-17.457 0.04,-0.285 3.18,-19.808 0.05,-0.329 3.22,-22.769 0.05,-0.371 3.18,-24.961 0.04,-0.41 3.23,-27.774 0.04,-0.441 3.18,-29.496 0.05,-0.481 3.23,-31.902 0.04,-0.504 3.17,-33.074 0.06,-0.527 0.89,2456.432 2.33,-2491.155 0.05,-0.539 3.22,-35.387 0.05,-0.547 1.79,-18.097 1.38,13.418 0.06,0.546 3.22,35.375 0.05,0.539 3.17,34.329 0.05,0.531 3.22,33.93 0.06,0.511 3.17,32.129 0.05,0.492 3.22,31.032 0.05,0.464 3.17,28.793 0.06,0.438 3.22,27.836 0.05,0.328 3.22,22.129 0.05,0.324 3.18,19.774 0.04,0.296 3.23,17.5 0.05,0.246 3.17,14.583 0.04,0.203 3.24,12.101 0.04,0.16 3.18,9.278 0.04,0.125 3.23,6.793 0.05,0.086 3.17,4.199 0.05,0.047 3.22,1.968 0.05,0.02 2.14,0.742 1.09,-1.555 0.05,-0.066 3.17,-4.992 0.05,-0.09 3.22,-6.875 0.06,-0.125 3.17,-8.66 0.05,-0.149 3.22,-10.664 0.05,-0.179 3.17,-12.219 0.05,-0.207 3.23,-14.039 0.05,-0.227 3.17,-15.312 0.05,-0.254 3.22,-16.926 0.06,-0.269 3.21,-18.047 0.06,-0.282 3.17,-19.718 0.05,-0.325 3.22,-21.531 0.05,-0.336 3.18,-21.949 0.04,-0.348 3.23,-23.035 0.04,-0.359 3.18,-23.34 0.05,-0.367 3.22,-24.27 0.05,-0.379 3.18,-24.351 0.04,-0.383 3.23,-25.113 0.05,-0.387 3.22,-25.41 0.05,-0.399 3.18,-25.117 0.05,-0.383 0.54,-4.277 2.68,20.891 0.05,0.39 3.17,25.149 0.05,0.387 3.22,25.304 0.06,0.383 3.17,24.605 0.05,0.383 3.22,24.59 0.05,0.371 3.17,23.715 0.06,0.363 3.22,23.481 0.05,0.359 3.22,22.793 0.05,0.344 3.18,21.777 0.04,0.336 3.23,20.985 0.04,0.293 3.18,18.503 0.05,0.282 3.22,17.695 0.05,0.258 3.18,16.097 0.05,0.239 3.21,14.863 0.06,0.223 3.18,13.062 0.04,0.192 3.22,11.55 0.05,0.161 3.18,9.566 0.05,0.137 3.22,7.828 0.05,0.101 3.22,6.09 0.06,0.086 3.16,2.371 h 0.06 0.1 l 3.12,-0.969 0.05,-0.027 3.17,-3.265 0.05,-0.071 3.23,-5.887 0.05,-0.113 3.17,-8.437 0.05,-0.149 3.22,-11.304 0.05,-0.2 3.18,-13.859 0.05,-0.238 3.22,-16.848 0.05,-0.277 3.23,-19.524 0.04,-0.32 3.17,-21.156 0.06,-0.297 3.22,-27.074 0.05,-0.43 3.17,-28.684 0.05,-0.461 3.22,-31.109 0.05,-0.492 3.18,-32.395 0.04,-0.519 3.23,-34.383 0.05,-0.539 3.17,-34.938 0.05,-0.558 3.22,-36.145 0.06,-0.558 2.18,-21.91 1.04,8.777 0.05,0.539 3.17,35.687 0.05,0.559 3.23,35.91 0.05,0.555 3.17,34.558 0.05,0.528 3.22,33.5 0.05,0.504 3.17,31.121 0.06,0.469 3.22,29.445 0.05,0.437 3.17,26.629 0.05,0.399 3.23,24.461 0.05,0.351 3.22,21.766 0.04,0.316 3.18,18.785 0.05,0.278 3.22,16.57 0.05,0.242 3.18,12.274 0.04,0.152 3.23,8.77 0.05,0.117 3.17,6.015 0.05,0.075 3.23,3.449 0.04,0.035 2.68,0.871 0.49,-0.023 0.06,-0.008 3.22,-1.633 0.05,-0.047 3.22,-4.008 0.06,-0.086 3.17,-6.101 0.05,-0.106 3.22,-8.144 0.05,-0.137 3.17,-9.312 0.05,-0.137 3.23,-13.938 0.04,-0.23 3.18,-15.238 0.05,-0.254 3.22,-16.848 0.05,-0.269 3.18,-17.875 0.05,-0.293 3.22,-19.368 0.05,-0.304 3.22,-20.493 0.05,-0.324 3.18,-21.148 0.04,-0.336 3.23,-22.32 0.05,-0.348 3.17,-22.586 0.05,-0.352 3.23,-23.492 0.04,-0.394 3.18,-25.184 0.05,-0.394 3.22,-25.7 0.05,-0.402 3.17,-25.449 0.05,-0.403 3.22,-25.835 0.06,-0.399 3.22,-22.75 0.05,-0.074 0.1,-0.047 3.07,20.676 0.05,0.394 3.23,25.645 0.05,0.398 3.17,25.145 0.05,0.39 3.22,25.188 0.05,0.383 3.17,24.488 0.06,0.383 3.22,24.547 0.05,0.371 3.17,23.414 0.05,0.359 3.23,22.926 0.04,0.348 3.23,21.976 0.05,0.332 3.17,20.614 0.05,0.312 3.23,19.809 0.04,0.297 3.18,18.324 0.04,0.277 3.23,17.359 0.05,0.258 3.17,15.899 0.05,0.242 3.22,13.516 0.05,0.191 3.18,11.469 0.05,0.168 3.22,9.785 0.05,0.137 3.22,7.765 0.06,0.102 3.17,5.527 0.05,0.07 3.22,3.336 0.05,0.035 2.93,0.981 0.24,-0.016 h 0.06 l 3.22,-1.406 0.05,-0.043 3.17,-3.715 0.05,-0.07 3.22,-5.684 0.06,-0.179 3.17,-11.661 0.04,-0.195 3.23,-14.156 0.05,-0.238 3.22,-16.879 0.05,-0.282 3.18,-19.328 0.04,-0.32 3.23,-22.34 0.05,-0.367 3.17,-24.527 0.05,-0.403 3.22,-27.16 0.05,-0.433 3.18,-28.579 0.04,-0.519 3.23,-34.215 0.05,-0.531 3.18,-34.836 0.04,-0.555 3.23,-36.453 0.05,-0.57 3.17,-36.426 0.05,-0.566 3.22,-34.086 0.05,-0.34 0.54,-2.035 2.69,23.172 0.05,0.558 3.17,35.809 0.05,0.554 3.22,35.829 0.05,0.574 3.17,35.57 0.06,0.539 3.22,33.895 0.05,0.504 3.17,31.05 0.05,0.469 3.23,28.984 0.04,0.426 3.18,25.867 0.05,0.375 3.22,23.418 0.05,0.336 3.22,20.481 0.05,0.293 3.18,17.172 0.05,0.234 3.21,13.637 0.06,0.187 3.18,10.446 0.04,0.136 3.22,7.594 0.05,0.09 3.18,4.582 0.05,0.055 3.22,1.871 0.05,0.007 0.65,0.051 2.52,-0.754 0.05,-0.031 3.23,-3.027 0.05,-0.063 3.22,-5.148 0.05,-0.137 3.17,-9.336 0.06,-0.156 3.22,-11.238 0.05,-0.184 3.17,-12.844 0.05,-0.215 3.22,-14.707 0.05,-0.238 3.18,-15.984 0.05,-0.262 3.22,-17.59 0.05,-0.281 3.17,-18.395 0.06,-0.293 3.21,-19.355 0.06,-0.363 3.22,-22.84 0.05,-0.356 3.17,-22.937 0.05,-0.367 3.22,-23.903 0.05,-0.371 3.18,-24.074 0.04,-0.375 3.23,-24.859 0.05,-0.383 3.17,-24.735 0.05,-0.39 3.22,-25.168 0.06,-0.391 3.17,-24.367 0.05,-0.414 3.22,-25.254 0.05,-0.316 1.14,-4.43 2.09,11.34 0.05,0.375 3.17,25.074 0.05,0.395 3.22,25.781 0.05,0.394 3.17,25.086 0.06,0.391 3.22,25.004 0.04,0.379 3.18,23.957 0.05,0.371 3.23,23.406 0.04,0.379 3.18,23.59 0.05,0.359 3.22,22.813 0.05,0.347 3.22,21.711 0.05,0.325 3.18,20.218 0.04,0.305 3.23,19.273 0.05,0.29 3.17,17.632 0.05,0.266 3.23,16.461 0.04,0.242 3.17,14.609 0.06,0.223 3.22,13.324 0.05,0.192 3.17,11.222 0.05,0.161 3.23,9.367 0.05,0.125 3.22,7.238 0.05,0.09 3.17,4.953 0.05,0.062 3.23,2.743 0.04,0.023 2.19,0.516 0.99,-0.11 0.05,-0.011 3.22,-2.207 0.05,-0.079 3.18,-5.964 0.05,-0.114 3.22,-8.773 0.05,-0.156 3.17,-11.477 0.05,-0.203 3.23,-14.598 0.04,-0.254 3.23,-17.55 0.05,-0.293 3.18,-20.047 0.04,-0.328 3.23,-22.86 0.04,-0.375 3.18,-25.457 0.05,-0.453 3.22,-30.578 0.05,-0.484 3.17,-32.161 0.05,-0.515 3.22,-34.567 0.06,-0.543 3.17,-35.523 0.05,-0.566 3.22,-37.078 0.05,-0.579 3.23,-37.121 0.05,-0.558 3.02,-25.746 0.15,0.175 0.05,0.114 3.22,31.476 0.05,0.602 3.17,38.199 0.06,0.59 3.22,37.547 0.05,0.566 3.17,35.219 0.05,0.535 3.23,33.574 0.04,0.496 3.18,30.524 0.04,0.457 3.23,28.031 0.05,0.402 3.18,24.997 0.04,0.382 3.23,23.125 0.04,0.325 3.23,19.578 0.05,0.277 3.17,15.891 0.05,0.222 3.22,12.782 0.06,0.168 3.17,9.394 0.05,0.129 3.22,6.473 0.05,0.078 3.18,3.301 0.04,0.027 2.04,0.566 1.19,-0.199 0.05,-0.019 3.17,-2.387 0.05,-0.059 3.22,-5.012 0.06,-0.093 3.22,-7.387 0.05,-0.133 3.17,-9.371 0.05,-0.156 3.22,-11.352 0.06,-0.187 3.17,-13.426 0.04,-0.234 3.23,-16.047 0.05,-0.258 3.17,-17.188 0.05,-0.277 3.23,-18.769 0.04,-0.297 3.18,-19.617 0.05,-0.317 3.22,-20.891 0.05,-0.324 3.22,-21.535 0.05,-0.328 3.18,-22.555 0.05,-0.375 3.22,-24.453 0.05,-0.379 3.18,-24.433 0.04,-0.383 3.22,-25.133 0.06,-0.391 3.17,-24.929 0.05,-0.391 3.22,-25.297 0.05,-0.383 3.17,-24.437 0.06,-0.371 3.22,-19.742 0.05,-0.024 h 0.04 l 3.18,19.531 0.06,0.391 3.16,25.234 0.06,0.395 3.22,25.574 0.05,0.391 3.17,24.742 0.05,0.383 3.23,24.5 0.04,0.371 3.18,23.195 0.05,0.348 3.22,23.617 0.05,0.371 3.18,23.215 0.05,0.355 3.21,22.426 0.06,0.336 3.22,21.258 0.05,0.32 3.17,19.715 0.05,0.301 3.22,18.648 0.06,0.274 3.17,16.73 0.05,0.239 3.22,16.054 0.05,0.246 3.17,14.727 0.05,0.215 3.23,13.043 0.05,0.187 3.17,10.903 0.05,0.148 3.22,8.965 0.06,0.121 3.22,6.703 0.05,0.082 3.17,4.211 0.05,0.051 3.23,1.984 0.04,0.02 1.14,0.168 2.04,-0.547 0.05,-0.031 3.22,-3.215 0.05,-0.074 3.17,-6.04 0.06,-0.121 3.21,-9.113 0.06,-0.164 3.17,-11.902 0.05,-0.211 3.22,-14.965 0.05,-0.25 3.22,-18.629 0.05,-0.32 3.18,-21.625 0.05,-0.36 3.22,-24.984 0.05,-0.406 3.17,-27.395 0.05,-0.453 3.23,-30.406 0.05,-0.489 3.17,-32.144 0.05,-0.52 3.22,-34.175 0.05,-0.528 3.17,-36.508 0.06,-0.589 3.22,-38.543 0.05,-0.594 3.22,-37.68 0.05,-0.543 1.79,-13.133 1.38,8.676 0.06,0.5 3.22,36.563 0.04,0.582 3.18,36.804 0.06,0.563 3.22,35.508 0.04,0.511 3.18,35.118 0.05,0.547 3.22,33.761 0.05,0.496 3.18,30.364 0.04,0.449 3.23,27.719 0.04,0.402 3.23,24.379 0.05,0.348 3.18,20.578 0.04,0.297 3.23,17.07 0.05,0.219 3.16,14.773 0.06,0.211 3.22,11.844 0.05,0.156 3.17,8.242 0.05,0.102 3.23,5.082 0.05,0.054 3.17,1.969 0.05,0.008 0.55,0.047 2.67,-0.981 0.05,-0.035 3.23,-3.75 0.05,-0.066 3.17,-5.723 0.05,-0.109 3.23,-8.274 0.04,-0.144 3.18,-10.32 0.05,-0.18 3.22,-12.465 0.05,-0.207 3.17,-14.008 0.05,-0.234 3.23,-15.996 0.04,-0.266 3.18,-17.406 0.05,-0.281 3.23,-18.977 0.04,-0.309 3.17,-19.816 0.06,-0.316 3.22,-21.102 0.05,-0.332 3.22,-21.875 0.05,-0.344 3.17,-22.379 0.05,-0.367 3.22,-24 0.06,-0.371 3.17,-24.031 0.05,-0.375 3.22,-24.727 0.05,-0.379 3.18,-24.539 0.05,-0.386 3.22,-24.891 0.05,-0.387 3.17,-24.258 0.05,-0.382 2.48,-14.676 0.75,2.375 0.05,0.277 3.22,23.723 0.05,0.39 3.17,24.739 0.05,0.383 3.23,24.859 0.05,0.379 3.17,23.847 0.04,0.368 3.23,23.777 0.05,0.379 3.18,23.976 0.04,0.364 3.23,23.429 0.04,0.356 3.18,22.141 0.05,0.339 3.22,21.411 0.05,0.316 3.22,20.07 0.06,0.293 3.17,18.555 0.05,0.301 3.22,18.828 0.05,0.281 3.18,16.961 0.04,0.254 3.23,15.562 0.05,0.227 3.17,13.523 0.05,0.196 3.22,11.652 0.06,0.16 3.17,9.426 0.05,0.148 3.22,8.649 0.05,0.113 3.22,6.192 0.06,0.074 3.17,3.594 0.05,0.035 2.72,0.984 0.5,-0.031 0.05,-0.004 3.17,-1.899 0.05,-0.054 3.23,-4.926 0.04,-0.082 3.18,-6.949 0.05,-0.133 3.22,-10.27 0.05,-0.179 3.18,-13.309 0.04,-0.234 3.23,-16.754 0.05,-0.281 3.22,-19.969 0.05,-0.336 3.18,-22.902 0.04,-0.375 3.23,-26.122 0.05,-0.425 3.17,-28.578 0.05,-0.465 3.22,-31.653 0.05,-0.504 3.17,-33.351 0.06,-0.535 3.22,-35.598 0.05,-0.559 3.17,-36.527 0.05,-0.59 3.23,-38.472 0.05,-0.586 3.02,-30.473 0.2,0.348 0.05,0.203 3.17,34.133 0.05,0.582 3.23,37.781 0.04,0.578 3.18,35.875 0.05,0.543 3.22,34.914 0.05,0.547 3.18,33.535 0.05,0.504 3.21,31.301 0.06,0.457 3.17,27.887 0.05,0.414 3.22,25.117 0.05,0.359 3.22,21.582 0.06,0.305 3.17,17.976 0.05,0.278 3.22,16.222 0.05,0.223 3.17,12.496 0.05,0.176 3.23,9.332 0.05,0.117 3.17,5.977 0.05,0.074 3.22,2.824 0.06,0.02 0.79,0.14 0.84,-0.418 1.54,0.102 0.05,-0.004 3.22,-1.93 0.05,-0.05 3.23,-4.622 0.04,-0.097 3.18,-6.965 0.05,-0.125 3.22,-9.359 0.05,-0.164 3.17,-11.332 0.06,-0.196 3.22,-13.539 0.05,-0.219 3.17,-14.476 0.05,-0.238 3.22,-16.305 0.05,-0.262 3.18,-17.473 0.04,-0.281 3.23,-19.031 0.05,-0.301 3.22,-20.16 0.05,-0.32 3.17,-20.981 0.05,-0.328 3.23,-22.015 0.05,-0.344 3.17,-22.391 0.05,-0.359 3.22,-23.371 0.05,-0.36 3.17,-23.496 0.06,-0.371 3.22,-24.168 0.05,-0.371 3.17,-24.211 0.05,-0.387 3.23,-24.929 0.05,-0.383 3.17,-24.305 0.05,-0.367 1.09,-6.047 2.13,13.801 0.06,0.375 3.22,24.656 0.04,0.379 3.18,24.016 0.05,0.367 3.22,24.258 0.05,0.379 3.18,23.992 0.04,0.371 3.23,23.766 0.04,0.363 3.18,22.715 0.05,0.347 3.23,22.235 0.04,0.332 3.17,20.847 0.06,0.313 3.22,20.301 0.05,0.316 3.22,19.961 0.05,0.297 3.17,18.351 0.06,0.278 3.22,17.215 0.05,0.25 3.17,15.379 0.05,0.226 3.22,13.758 0.05,0.191 3.18,11.817 0.05,0.183 3.22,10.977 0.05,0.148 3.17,8.641 0.06,0.121 3.22,6.457 0.05,0.074 3.22,3.949 0.05,0.036 2.83,1.175 0.14,-0.003"
       style="fill:none;stroke:#0072bd;stroke-width:13.002;stroke-linecap:butt;stroke-linejoin:round;stroke-miterlimit:10;stroke-dasharray:none;stroke-opacity:1"
       transform="matrix(0.13333333,0,0,-0.13333333,0,420)" />
  </g>
</svg>
